<svg xmlns="http://www.w3.org/2000/svg" id="Layer_1" data-name="Layer 1" viewBox="0 0 302.83 101.65"><defs><style>.cls-1{fill:none;}.cls-2{fill:#3b76ba;}</style></defs><title>Experience Logo Colour</title><path class="cls-1" d="M362.27,393.65c.39-1.68-.06-2.65-1.09-2.65-3.17,0-9.05,7.69-12.74,15.25a9.78,9.78,0,0,0,3.94-.9C355.55,403.93,361,399.21,362.27,393.65Z" transform="translate(-155.3 -345.01)"/><path class="cls-1" d="M291.43,393.65c.39-1.68-.06-2.65-1.1-2.65-3.17,0-9.05,7.69-12.73,15.25a9.82,9.82,0,0,0,3.94-.9C284.71,403.93,290.14,399.21,291.43,393.65Z" transform="translate(-155.3 -345.01)"/><path class="cls-1" d="M259.89,391.39c-5.11,0-18.94,21-20.82,26a9.62,9.62,0,0,0,6.47,2.9c5-.06,10.28-11.76,12.28-17.64,1.49-4.34,2.65-8.21,2.65-10.09C260.47,392.23,260.47,391.39,259.89,391.39Z" transform="translate(-155.3 -345.01)"/><path class="cls-1" d="M451.41,393.65c.39-1.68-.07-2.65-1.1-2.65-3.17,0-9.05,7.69-12.73,15.25a9.82,9.82,0,0,0,3.94-.9C444.69,403.93,450.12,399.21,451.41,393.65Z" transform="translate(-155.3 -345.01)"/><path d="M456.45,408.39c-7.95,7.95-16.16,12.6-20.36,12.6-1.16,0-2.07-1-2.07-2.84a25.13,25.13,0,0,1,2.2-8.92,18.21,18.21,0,0,0,4.91-.32c6.27-1.43,17-8.28,17-12.93,0-5.17-5.3-9.18-10.73-9.18-7.7,0-16.93,12.08-20.48,22.29l.9-1c.71,0,.45,1.75.19,2.2a25.48,25.48,0,0,1-2.25,3,17.73,17.73,0,0,0-.34,3.27c0,4.14,5.56,9.11,10.93,9.11,6.14,0,17.77-10.6,20.23-15.12C456.78,410.13,457.16,408.45,456.45,408.39ZM450.31,391c1,0,1.49,1,1.1,2.65-1.29,5.56-6.72,10.28-9.89,11.7a9.82,9.82,0,0,1-3.94.9C441.26,398.69,447.14,391,450.31,391Z" transform="translate(-155.3 -345.01)"/><path d="M268.55,393.33c-.45-2.27-4.78-6-8.27-6s-12.67,9.7-15.71,15.84a75.42,75.42,0,0,1,3.42-7.63c.91-1.68,2-3.55,2.59-3.87-.06-.59-4.27-3.24-6.53-3.17a1.82,1.82,0,0,0-1.16.58,32.71,32.71,0,0,0-3.95,7c-4.26,9.63-7.43,18.36-9.63,24.57-.27.77-.54,1.55-.81,2.31-2.14-2.24-4.58-10.13-5.65-14.53-.32-1.42-.65-3-.91-4.53,3.24-3.55,14.81-12.6,16.55-13.19.2-.83-1.23-2.77-2.32-2.58-1,0-12.87,9.5-14.94,11.7-.77-5.3-1-9.05-.32-10.86.65-1.23-8.79-.13-8.79,1.88-.07,3.42.77,8.92,2.07,15.32-3,2.62-13.67,11.95-15.74,15.3a296.33,296.33,0,0,0-31.58,1.12c2.27-7.5,7.37-19.72,11.9-30.06a230.05,230.05,0,0,1,28-.71c.71-.46,2.26-2.66,1.55-3-7.31-.52-17.84-.65-27.67-.33A150.74,150.74,0,0,1,188,374.32a140,140,0,0,1,26.31-1.16c.71-.39,2.52-2.52,1.94-2.91-12.8-1.23-32.91-.65-39.31-.26-1.1.58,0,3.62.78,5.17-1.94,3.43-4.53,8.47-7,13.77a105.91,105.91,0,0,0-12.09,1.36c-1.49.84-3.88,4.59-3.17,5.3,3.75-.78,8.27-1.49,13.12-2.07-3.16,7.37-10.6,23-10.66,29.41.26,1.62,5.69,6.27,8.21,6.08a211.82,211.82,0,0,1,34.07-3.95c1,.84,2,1.48,2.51,1.3a7.3,7.3,0,0,1,1.22-2.48,5.19,5.19,0,0,0,.62-.93,80.56,80.56,0,0,1,10.64-12.3c2.13,9.5,4.2,15.32,5.94,16.87,1.1.7,5-1.56,6.88-3.08-2.63,7.7-4.68,14.51-4.68,16.79,0,1,4.65,5.43,6.53,5.43a1.11,1.11,0,0,0,.65-.2c.19-2.19.58-3.81.84-5.36a185.18,185.18,0,0,1,5.62-18.68l1.1-3.11c3.23,3.49,7.3,6.08,12,6.08,8.53,0,14.41-14.48,16.55-20.69C268.1,400.18,269,395.72,268.55,393.33Zm-10.73,9.31c-2,5.88-7.24,17.58-12.28,17.64a9.62,9.62,0,0,1-6.47-2.9c1.88-5,15.71-26,20.82-26,.58,0,.58.84.58,1.16C260.47,394.43,259.31,398.3,257.82,402.64Z" transform="translate(-155.3 -345.01)"/><path d="M321.81,403.93c.32-.32,2.39-3.69,4.46-6.6,1.94-2.71,3.94-5.36,4.2-5.88-.26-1.42-4.91-4.78-8.47-4.78-2.58,0-13.12,12.47-16.61,20,3-7.69,6.53-14.93,7.5-15.06.06-.58-4.14-3.1-6.47-3.1a1.24,1.24,0,0,0-1.09.45c-2.77,3.84-6.4,12.41-9,19.6-7.91,7.86-16,12.46-20.22,12.46-1.16,0-2.07-1-2.07-2.84a25.13,25.13,0,0,1,2.2-8.92,18.21,18.21,0,0,0,4.91-.32c6.27-1.43,17-8.28,17-12.93,0-5.17-5.3-9.18-10.73-9.18-9.76,0-22,19.39-22,29.8,0,4.14,5.56,9.11,10.93,9.11,5.12,0,14.08-7.38,18.33-12.46a33.56,33.56,0,0,0-1.72,6.58c0,1.75,4.46,5,7.37,5.56a3.67,3.67,0,0,1-.13-1c0-2.84,3.56-10.08,5.24-13.12a84,84,0,0,1,16.16-20.63c-.71,3.17-2,10.8-1.75,12.22C319.94,403.35,321.29,404.06,321.81,403.93ZM290.33,391c1,0,1.49,1,1.1,2.65-1.29,5.56-6.72,10.28-9.89,11.7a9.82,9.82,0,0,1-3.94.9C281.28,398.69,287.16,391,290.33,391Z" transform="translate(-155.3 -345.01)"/><path d="M338.87,396.82c.85-1.94,2.46-4.79,3.24-5.24-.07-.58-4.33-3.3-6.6-3.23a1.82,1.82,0,0,0-1.16.58,35.18,35.18,0,0,0-3.94,7A153.55,153.55,0,0,0,324.27,411a65.29,65.29,0,0,0-3.11,9.95c0,1.74,5,5.11,7.95,5.62-.77-1.94,1.49-8.66,3.82-15.19C334.28,407.55,335.9,403.41,338.87,396.82Z" transform="translate(-155.3 -345.01)"/><path d="M347,421c-1.16,0-2.06-1-2.06-2.84a25.31,25.31,0,0,1,2.19-8.92,18.28,18.28,0,0,0,4.92-.32c6.27-1.43,17-8.28,17-12.93,0-5.17-5.3-9.18-10.73-9.18-9.76,0-22,19.39-22,29.8,0,4.14,5.56,9.11,10.92,9.11,5.13,0,14.08-7.38,18.33-12.45.47-1.45,1-3.05,1.63-4.73C359.26,416.39,351.13,421,347,421Zm14.23-30c1,0,1.48,1,1.09,2.65-1.29,5.56-6.72,10.28-9.89,11.7a9.78,9.78,0,0,1-3.94.9C352.13,398.69,358,391,361.18,391Z" transform="translate(-155.3 -345.01)"/><path class="cls-2" d="M402.93,392c-.19-1-4.59-4.53-7-4.53-3.11,0-7.95,4.72-10,7a78.9,78.9,0,0,0-11.18,16.22c3.3-9,7.89-18.94,9-19.07.07-.58-4.13-3.1-6.46-3.1a1.26,1.26,0,0,0-1.1.45c-2.77,3.84-6.39,12.41-9,19.6-.61,1.68-1.16,3.28-1.63,4.73a34.14,34.14,0,0,0-1.72,6.57c0,1.75,4.46,5,7.37,5.56a4.14,4.14,0,0,1-.13-1c0-5.75,15.32-26.37,20-30.51,1.42-1.23,2.52-2,3.3-1.55-3.17,5.56-10.93,23.92-10.93,28.57,0,1.74,5.24,5.11,8.15,5.62C389.16,424.74,400.54,396.62,402.93,392Z" transform="translate(-155.3 -345.01)"/><path class="cls-2" d="M427.82,408.13l-.9,1c-6.41,6.71-14.48,11.9-18.5,11.9-1.16,0-2.06-1-2.06-2.84,0-2.46.71-5.69,3.55-11.9,3.23-7,9.63-15.19,12.61-15,.84.06,1.22,1,1.22,2.26a47.28,47.28,0,0,1-1,7.69c-.07.45.13.71.64.71s6.4-5,6.53-7.69c-.65-4.46-6.21-7-10-7.37-9.89-.71-22.17,19.85-22.17,29.74,0,4.14,5.56,9.11,10.92,9.11,4.91,0,13-7.51,17.08-12.38a25.48,25.48,0,0,0,2.25-3C428.27,409.88,428.53,408.13,427.82,408.13Z" transform="translate(-155.3 -345.01)"/><path class="cls-2" d="M348.87,366.62a4.47,4.47,0,0,1-.15,1.25,6,6,0,0,1-.6,1.41,6.41,6.41,0,0,1-3,2.53,7.72,7.72,0,0,1-3.25.59,8.67,8.67,0,0,1-4.93-1.81,10.07,10.07,0,0,1-3.61-5.46,12.56,12.56,0,0,1-.33-1.85,11.64,11.64,0,0,1,.76-5.28,12.44,12.44,0,0,1,1.06-2.09,13.13,13.13,0,0,1,2.24-2.66,12.57,12.57,0,0,1,1.69-1.29c.2-.13.4-.26.6-.37s.41-.23.62-.33a13.81,13.81,0,0,1,3.82-1.25,13,13,0,0,1,2.65-.2,14.22,14.22,0,0,1,2.75.31,13.68,13.68,0,0,1,2.26.68,14.09,14.09,0,0,1,2.14,1,14.56,14.56,0,0,1,2.42,1.79,15.48,15.48,0,0,1,2,2.2c.22.28.4.58.6.87s.38.59.54.9l.27.5.24.51c.25.55.46,1.12.66,1.69.11.39.23.78.32,1.17,0,.15.07.31.1.45s.05.29.08.42c.09.43.12.8.16,1.1,0,.15,0,.29,0,.4s0,.2,0,.29v.28h0v-.55l0-.22v-.22c0-.12,0-.25,0-.38s0-.25,0-.38V362c0-.08,0-.17,0-.25v-.28l0-.34c0-.08,0-.15,0-.23l0-.51v-.22l0-.22,0-.18-.06-.4-.09-.47-.08-.39-.08-.3-.13-.48c-.11-.35-.22-.71-.35-1.06a16,16,0,0,0-.66-1.55c-.16-.32-.31-.64-.49-.94l-.25-.43-.27-.43c-.17-.28-.37-.55-.56-.83a17.74,17.74,0,0,0-1.89-2.2,18,18,0,0,0-2.31-1.93,18.4,18.4,0,0,0-4.39-2.26,19,19,0,0,0-2.92-.77,19.41,19.41,0,0,0-3-.29,19.09,19.09,0,0,0-4.73.51,16.42,16.42,0,0,0-1.66.47c-.43.13-.84.31-1.26.47s-.83.35-1.23.56a19.27,19.27,0,0,0-3.84,2.52,18.16,18.16,0,0,0-2.33,2.31,19.93,19.93,0,0,0-3.9,7.08,18.87,18.87,0,0,0-.66,3c-.09.49-.12,1-.17,1.5s-.06,1-.05,1.52a19.35,19.35,0,0,0,.25,3,19.81,19.81,0,0,0,1.86,5.84,20.2,20.2,0,0,0,8,8.48,19.84,19.84,0,0,0,8.36,2.54,19.74,19.74,0,0,0,6.57-.67,18.47,18.47,0,0,0,5.79-2.78,17.6,17.6,0,0,0,6.79-9.69,15.78,15.78,0,0,1,.25-2c.11-1,.08-1.93,0-1.77a29.57,29.57,0,0,1-.92,3.73,12.71,12.71,0,0,1-1.85,3.61c-.24.19.46-1,.93-2.23a5.79,5.79,0,0,0,.61-2.44,36.51,36.51,0,0,1-2,4,15.32,15.32,0,0,1-1.91,2.46,10,10,0,0,1-.85.81,4.35,4.35,0,0,1-.55.39c-.1,0,0-.07.19-.31s.55-.6.94-1.07a16.91,16.91,0,0,0,1.27-1.71,18.14,18.14,0,0,0,1.18-2.19,16.09,16.09,0,0,0,.81-2.36,13.67,13.67,0,0,0,.37-2.15,5.79,5.79,0,0,0-.1-2.29c-.05-.05,0,.61-.13,1.65a15.4,15.4,0,0,1-.89,3.88,15.07,15.07,0,0,1-2.11,3.83,10.46,10.46,0,0,1-1.79,1.89c-.34.23.16-.25.94-1.23A15.73,15.73,0,0,0,358,372a13.65,13.65,0,0,0,.89-5,7.57,7.57,0,0,0-.4-2.59,18.52,18.52,0,0,0,.1,1.94,14,14,0,0,1-.8,5,14.58,14.58,0,0,1-1.34,2.79,14.76,14.76,0,0,1-1.88,2.41,13.7,13.7,0,0,1-3.66,2.74c-.62.29-.62.21-.27-.06l.72-.56c.29-.25.62-.52.95-.83a15.78,15.78,0,0,0,1.75-1.9c.21-.3.4-.54.51-.73l.13-.22a.3.3,0,0,0,0-.08s.05-.16.17-.39.13-.24.22-.38.18-.32.28-.5a15.51,15.51,0,0,0,1.17-2.7,11.74,11.74,0,0,0,.5-2.71c0-.71,0-1.15-.1-1.07s0,.77-.22,1.85a12.65,12.65,0,0,1-.46,1.84,13.24,13.24,0,0,1-3.47,5.46,12.27,12.27,0,0,1-1.13.94,1.84,1.84,0,0,1-.49.32s0-.08.2-.22l.64-.59a14.06,14.06,0,0,0,1.75-2,11.7,11.7,0,0,0,1.28-2.2c.26-.61.37-1,.31-1s-.76,1.06-1.67,2.07c-.14.15.31-.66.61-1.49a4.7,4.7,0,0,0,.39-1.49c-.26.51-.6,1.17-1,1.86a14.16,14.16,0,0,1-1.51,2,8.6,8.6,0,0,1-2.34,1.93c-.05-.08.52-.5,1.24-1.2a14.55,14.55,0,0,0,1.14-1.25,12.72,12.72,0,0,0,1.06-1.54,11.92,11.92,0,0,0,.76-1.64,9.47,9.47,0,0,0,.4-1.45c.15-.84.12-1.37,0-1.31a10,10,0,0,0-.38,1.43,11.15,11.15,0,0,1-1.3,2.93,10.78,10.78,0,0,1-2.22,2.53,4.56,4.56,0,0,1-1.34.9s.56-.45,1.34-1.18a12.49,12.49,0,0,0,1.21-1.33,11.2,11.2,0,0,0,1.08-1.68,10.72,10.72,0,0,0,.71-1.77,9.1,9.1,0,0,0,.31-1.56c.09-.9,0-1.46-.05-1.4s-.12.68-.33,1.6a11,11,0,0,1-.49,1.57,10.36,10.36,0,0,1-4.41,5.1,6.55,6.55,0,0,1-2.3.92,8.4,8.4,0,0,1,1.14-.59,11.32,11.32,0,0,0,2.27-1.62,9.78,9.78,0,0,0,1.66-2.06,2.84,2.84,0,0,0,.46-1c-.05,0-.14.09-.27.22l-.23.24c-.08.09-.18.19-.27.3a10.85,10.85,0,0,1-2,1.72,3.27,3.27,0,0,1-1.45.64,7.05,7.05,0,0,1,.86-.74,8.91,8.91,0,0,0,1.59-1.8,7.26,7.26,0,0,0,1-2c.16-.57.19-.94.14-.94a4.5,4.5,0,0,0-.45.89,7.82,7.82,0,0,1-.66,1.14,7.64,7.64,0,0,1-.92,1.11,6.21,6.21,0,0,1-.48.44c-.15.12-.29.24-.42.33l-.3.2c-.08,0-.13.05-.14,0a7.57,7.57,0,0,1,.68-.73,8.56,8.56,0,0,0,1.22-1.69,6.5,6.5,0,0,0,.65-1.82,1.71,1.71,0,0,0,0-.82c-.08,0-.14.32-.28.83-.07.25-.18.54-.3.86a9.36,9.36,0,0,1-.51,1,7.16,7.16,0,0,1-1.8,2,2.81,2.81,0,0,1-1.17.64s.34-.25.79-.63a7.22,7.22,0,0,0,1.42-1.52,6.16,6.16,0,0,0,.86-1.73,2.18,2.18,0,0,0,.14-.83c-.07,0-.2.26-.45.7-.06.11-.15.22-.22.35a4.44,4.44,0,0,1-.27.38,5.31,5.31,0,0,1-.67.79,6.53,6.53,0,0,1-1.59,1.18l-.34.16-.26.09c-.15.06-.23.05-.22,0s.46-.27,1-.67a7.82,7.82,0,0,0,.84-.74,7.06,7.06,0,0,0,.75-1,5.18,5.18,0,0,0,.75-2A1.89,1.89,0,0,0,348.87,366.62Z" transform="translate(-155.3 -345.01)"/></svg>