<svg xmlns="http://www.w3.org/2000/svg" viewBox="0 0 270 181" fill="none">
<path fill-rule="evenodd" clip-rule="evenodd" d="M138.552 180.394C139.28 180.78 140.064 181 140.904 181C141.687 181 142.527 180.835 143.255 180.504L165.598 167.771C167.054 166.944 167.95 165.401 167.95 163.747V138.336C167.95 136.682 167.054 135.139 165.598 134.312L143.255 121.579C141.855 120.807 139.952 120.807 138.552 121.579L116.209 134.312C114.753 135.139 113.857 136.682 113.857 138.336V163.747C113.857 165.401 114.753 166.944 116.209 167.771L122.089 171.078C124.944 172.456 125.952 172.456 127.24 172.456C131.44 172.456 133.848 169.921 133.848 165.566V140.486C133.848 140.1 133.512 139.824 133.176 139.824H130.32C129.928 139.824 129.648 140.155 129.648 140.486V165.566C129.648 167.495 127.576 169.424 124.273 167.771L118.169 164.298C117.945 164.188 117.833 163.912 117.833 163.692V138.281C117.833 138.06 117.945 137.785 118.169 137.674L140.512 124.996C140.68 124.886 140.96 124.886 141.184 124.996L163.526 137.674C163.75 137.785 163.862 138.005 163.862 138.281V163.692C163.862 163.967 163.75 164.188 163.526 164.298L141.184 177.031C141.016 177.141 140.736 177.141 140.512 177.031L134.8 173.669C134.632 173.559 134.408 173.503 134.24 173.614C132.672 174.496 132.392 174.606 130.88 175.102C130.544 175.212 129.984 175.433 131.104 176.039L138.552 180.394ZM135.976 155.368C135.976 159.117 137.992 163.526 147.791 163.526C154.903 163.526 158.934 160.77 158.99 155.92C158.99 151.179 155.743 149.911 148.855 149.029C141.911 148.147 141.184 147.651 141.184 146.053C141.184 144.73 141.799 142.966 146.951 142.966C151.543 142.966 153.279 143.958 153.951 146.99C154.007 147.265 154.287 147.486 154.567 147.486H157.479C157.647 147.486 157.815 147.376 157.927 147.265C158.039 147.1 158.095 146.935 158.095 146.769C157.647 141.478 154.119 139.052 146.951 139.052C140.568 139.052 136.76 141.698 136.76 146.163C136.76 150.959 140.568 152.282 146.671 152.888C154.007 153.604 154.567 154.652 154.567 156.085C154.567 158.565 152.551 159.613 147.847 159.613C141.911 159.613 140.624 158.18 140.176 155.258C140.176 154.927 139.896 154.707 139.56 154.707H136.648C136.256 154.707 135.976 155.038 135.976 155.368Z" fill="#057AFF"/>
<path fill-rule="evenodd" clip-rule="evenodd" d="M2.3457 179H28.8184C28.8184 179 23.7584 149.302 40.5132 137.276C44.1658 134.991 55.7937 126.457 74.8272 144.56C75.4303 143.914 76 143.397 76 143.397C76 143.397 58.575 121.026 39.1729 123.526C29.4215 124.647 17.4251 136.069 10.388 151.155C3.35099 166.241 2.3457 179 2.3457 179Z" fill="#057AFF"/>
<path fill-rule="evenodd" clip-rule="evenodd" d="M2.3457 179H28.8184C28.8184 179 23.7584 149.302 40.5132 137.276C44.1658 134.991 55.7937 126.457 74.8272 144.56C75.4303 143.914 76 143.397 76 143.397C76 143.397 58.575 121.026 39.1729 123.526C29.4215 124.647 17.4251 136.069 10.388 151.155C3.35099 166.241 2.3457 179 2.3457 179Z" fill="#057AFF"/>
<path fill-rule="evenodd" clip-rule="evenodd" d="M2.3457 179H28.8184C28.8184 179 23.7584 149.302 40.5132 137.276C44.1658 134.991 55.7937 126.457 74.8272 144.56C75.4303 143.914 76 143.396 76 143.396C76 143.396 58.575 121.026 39.1729 123.526C29.388 124.647 17.3916 136.069 10.3545 151.155C3.31748 166.241 2.3457 179 2.3457 179ZM57.5027 125.94L57.6367 123.052C57.3351 122.836 56.4974 122.319 54.3863 121.543L54.2522 124.388C55.358 124.862 56.4303 125.379 57.5027 125.94Z" fill="#057AFF"/>
<path fill-rule="evenodd" clip-rule="evenodd" d="M54.3192 135.078L54.1852 137.793C55.291 137.836 56.3968 138.009 57.5026 138.31L57.6367 135.638C56.4973 135.336 55.3915 135.164 54.3192 135.078ZM41.9206 121.629H42.2557L41.5855 119C40.5467 119 39.4744 119.086 38.3686 119.259L39.0053 121.802C39.9771 121.672 40.9488 121.629 41.9206 121.629ZM43.5291 137.491L44.2998 140.465C45.2716 139.862 46.2434 139.345 47.2152 138.957L46.4779 136.112C45.3386 136.543 44.3668 137.017 43.5291 137.491ZM28.3157 126.155L26.8078 123.181C25.97 123.741 25.0988 124.345 24.194 125.034L25.7354 128.052C26.6067 127.362 27.4444 126.715 28.3157 126.155ZM35.1852 145.552L36.7936 148.655C37.3633 147.578 38.0335 146.586 38.7707 145.595L37.2628 142.664C36.4921 143.569 35.7884 144.56 35.1852 145.552ZM30.3263 159.431L33.0406 162.19C33.1746 160.509 33.4092 158.827 33.7443 157.146L31.3316 154.69C30.8959 156.284 30.5943 157.879 30.3263 159.431ZM15.649 138.957L13.2698 136.284C12.3986 137.362 11.5608 138.44 10.7901 139.517L13.3704 142.362C14.0741 141.198 14.8448 140.034 15.649 138.957ZM5.5291 158.224L1.67548 156.414C1.0388 158.267 0.335097 160.422 0 161.586L3.85361 163.396C4.28924 161.931 4.99294 159.819 5.5291 158.224ZM29.8236 170.379C29.8906 172.664 30.0582 174.517 30.2257 175.81L34.2469 177.664C33.9453 175.983 33.6437 174.086 33.4427 172.06L29.8236 170.379Z" fill="#057AFF"/>
<g clip-path="url(#clip0)">
<path d="M237.94 117C222.628 117 223.584 123.64 223.584 123.64L223.601 130.519H238.213V132.584H217.798C217.798 132.584 208 131.473 208 146.923C208 162.372 216.552 161.824 216.552 161.824H221.655V154.655C221.655 154.655 221.38 146.103 230.071 146.103C238.761 146.103 244.563 146.103 244.563 146.103C244.563 146.103 252.705 146.235 252.705 138.234C252.705 130.234 252.705 125.006 252.705 125.006C252.705 125.006 253.941 117 237.94 117ZM229.883 121.626C231.337 121.626 232.512 122.801 232.512 124.254C232.512 125.708 231.337 126.883 229.883 126.883C228.429 126.883 227.254 125.708 227.254 124.254C227.254 122.801 228.429 121.626 229.883 121.626Z" fill="#057AFF"/>
<path d="M238.374 177C253.686 177 252.73 170.36 252.73 170.36L252.713 163.481H238.101V161.416H258.516C258.516 161.416 268.314 162.527 268.314 147.077C268.314 131.628 259.762 132.176 259.762 132.176H254.659V139.345C254.659 139.345 254.934 147.897 246.243 147.897C237.553 147.897 231.752 147.897 231.752 147.897C231.752 147.897 223.609 147.765 223.609 155.766C223.609 163.766 223.609 168.994 223.609 168.994C223.609 168.994 222.373 177 238.374 177ZM246.431 172.374C244.977 172.374 243.802 171.199 243.802 169.746C243.802 168.292 244.977 167.117 246.431 167.117C247.885 167.117 249.06 168.292 249.06 169.746C249.06 171.199 247.885 172.374 246.431 172.374Z" fill="#057AFF"/>
</g>
<path d="M257.2 0H270L238 56L206 0H218.64H230.48L238 12.9855L245.36 0H257.2Z" fill="#057AFF"/>
<path d="M218.64 0L238 33.7623L257.2 0H245.36L238 12.9855L230.48 0H218.64Z" fill="#057AFF"/>
<path d="M113 9.94475L140.912 0L169.575 9.76796L164.934 46.6961L140.912 60L117.265 46.8729L113 9.94475Z" fill="#057AFF"/>
<path fill-rule="evenodd" clip-rule="evenodd" d="M123.564 45.7017L140.956 7.00552L159.188 45.8122L152.978 45.7017L149.155 36.8619H141H140.978H133.552L130.061 45.5912L123.564 45.7017ZM146.879 31.6906L141 19.4033L135.829 31.6906H140.956H141.243H146.879Z" fill="white"/>
<path fill-rule="evenodd" clip-rule="evenodd" d="M57.2761 18.763C58.0225 18.9785 58.7474 19.2063 59.447 19.4471C66.7305 21.9545 71.4373 25.882 71.4373 29.9432C71.4373 34.1784 66.4072 38.3193 58.6762 40.8808C58.2677 41.0162 57.8488 41.1464 57.422 41.2726C57.5744 41.8848 57.71 42.4863 57.8266 43.075C59.3527 50.7843 58.1772 57.1207 54.5601 59.2147C51.058 61.2421 45.3974 59.2506 39.6661 54.3186C39.0609 53.7976 38.4524 53.2422 37.843 52.6553C37.3728 53.1098 36.9035 53.5434 36.4358 53.9522C30.5188 59.1244 24.4422 61.2706 20.8216 59.1826C17.3162 57.1608 16.2148 51.2623 17.6252 43.8338C17.7739 43.0501 17.9511 42.2465 18.1548 41.4266C17.5273 41.2465 16.9183 41.0569 16.3314 40.8563C8.89489 38.3145 4 34.1225 4 29.9432C4 25.8966 8.55974 21.9954 15.6994 19.5062C16.4975 19.2281 17.3315 18.9666 18.1954 18.7214C18.0066 17.9632 17.8396 17.2175 17.6967 16.4874C16.2175 8.92764 17.2584 2.8864 20.7731 0.851768C24.4384 -1.27013 30.5426 1.00854 36.6324 6.41574C37.004 6.74572 37.3766 7.09071 37.7498 7.4477C38.3099 6.90814 38.8703 6.39329 39.429 5.90702C45.2398 0.850087 50.9933 -1.26521 54.5114 0.763541C58.1803 2.87932 59.2548 9.30552 57.6115 17.2824C57.5114 17.7682 57.3988 18.2624 57.2761 18.763ZM56.6375 38.5007C57.023 38.3863 57.4014 38.2683 57.7702 38.1462C64.4453 35.9344 68.5564 32.5502 68.5564 29.9432C68.5564 27.4958 64.7497 24.3195 58.5092 22.1711C57.864 21.949 57.1945 21.7384 56.5046 21.5388C55.675 24.2232 54.5677 27.0595 53.2225 29.9573C54.6321 32.9257 55.784 35.7988 56.6375 38.5007ZM55.0004 43.6345C55.6752 47.0435 55.7716 50.1256 55.3246 52.535C54.923 54.6999 54.1152 56.1434 53.1165 56.7215C50.9912 57.9516 46.4464 56.3526 41.5449 52.1347C40.983 51.6512 40.417 51.135 39.8493 50.5885C41.7495 48.5103 43.6486 46.0943 45.5021 43.4111C48.7622 43.1219 51.8422 42.6489 54.6353 42.0032C54.7729 42.5582 54.8951 43.1024 55.0004 43.6345ZM22.2611 56.6868C23.2607 57.2632 24.9145 57.2422 26.9909 56.5089C29.3016 55.6928 31.9236 54.0701 34.54 51.7831C34.9662 51.4105 35.3947 51.0151 35.8249 50.5997C33.8558 48.4866 31.9019 46.0732 30.0359 43.4477C26.768 43.1827 23.7105 42.7432 20.948 42.1323C20.7584 42.8962 20.594 43.6436 20.4558 44.3711C19.2496 50.724 20.1339 55.4599 22.2611 56.6868ZM17.2632 38.1302C13.9749 37.0063 11.2593 35.5456 9.3979 33.9516C7.7253 32.5192 6.88084 31.0971 6.88084 29.9432C6.88084 27.4876 10.5419 24.3555 16.6478 22.2266C17.3887 21.9683 18.1642 21.7248 18.9691 21.4962C19.8129 24.2412 20.9199 27.1112 22.2558 30.0133C20.9026 32.9585 19.7799 35.8743 18.9278 38.6514C18.354 38.4865 17.7981 38.3129 17.2632 38.1302ZM22.2163 3.34512C20.0983 4.57118 19.2566 9.45718 20.5239 15.9342C20.6566 16.6123 20.812 17.3058 20.9875 18.0118C23.7789 17.3794 26.8148 16.9072 29.9865 16.6132C31.8359 14.0031 33.772 11.6079 35.7313 9.504C35.393 9.18086 35.0555 8.86852 34.7194 8.57011C29.4613 3.90125 24.4724 2.03899 22.2163 3.34512ZM49.6134 23.117C48.9461 21.9644 48.2611 20.8391 47.5627 19.7444C49.7144 20.0165 51.7759 20.3775 53.7118 20.8194C53.1306 22.6821 52.4062 24.6297 51.5534 26.6263C50.9417 25.465 50.2947 24.294 49.6134 23.117ZM41.7192 16.3536C40.4103 14.6097 39.0795 13.0024 37.7507 11.5628C36.4011 13.019 35.0589 14.6241 33.7487 16.3518C35.0595 16.2906 36.3849 16.2589 37.7186 16.2589C39.0649 16.2589 40.4002 16.2913 41.7192 16.3536ZM25.8122 23.1369C25.1456 24.2928 24.5106 25.4574 23.9085 26.6241C23.0695 24.6345 22.3518 22.678 21.7656 20.7889C23.6897 20.3583 25.7415 20.0062 27.8794 19.7394C27.1712 20.8441 26.4805 21.9777 25.8122 23.1367V23.1369ZM21.7259 39.3535C23.6495 39.7721 25.7321 40.1061 27.941 40.3525C27.2146 39.2253 26.5068 38.0693 25.8237 36.8892H25.8236C25.1529 35.7308 24.5154 34.5658 23.9117 33.3998C23.055 35.4323 22.3215 37.4306 21.7259 39.3535ZM37.8305 48.5267C36.4651 47.0534 35.1031 45.4238 33.773 43.6709C35.0643 43.7216 36.3807 43.7475 37.7186 43.7475C39.0932 43.7475 40.452 43.7165 41.7895 43.657C40.4763 45.4415 39.1503 47.0736 37.8305 48.5267ZM53.8455 39.2285C53.2422 37.3384 52.4823 35.3506 51.581 33.2962C50.9642 34.485 50.3119 35.6781 49.625 36.8693C48.9459 38.0468 48.2549 39.1915 47.5548 40.3008C49.7791 40.0339 51.8902 39.6746 53.8455 39.2285ZM47.1293 35.4301C46.0752 37.2579 44.9929 39.0028 43.8942 40.6498C41.8931 40.7929 39.8257 40.8666 37.7185 40.8666C35.6199 40.8666 33.5786 40.8014 31.6128 40.6738C30.4698 39.0052 29.364 37.2551 28.3166 35.4458H28.3168C27.2721 33.6414 26.3106 31.8218 25.4394 30.0123C26.3104 28.1987 27.2694 26.377 28.3081 24.5758L28.3078 24.5762C29.3493 22.7702 30.4453 21.0287 31.5778 19.3705C33.5834 19.2189 35.64 19.1398 37.7184 19.1398H37.7185C39.8063 19.1398 41.8656 19.2195 43.8706 19.3725C44.9857 21.0185 46.0743 22.7544 47.1199 24.5606C48.1773 26.3871 49.1486 28.1966 50.027 29.9714C49.1512 31.7766 48.1821 33.6045 47.1293 35.4301ZM54.7899 16.7009C56.2087 9.81377 55.3305 4.56165 53.0723 3.25937C50.9522 2.03679 46.2989 3.74744 41.3203 8.08019C40.8049 8.52877 40.2874 9.00412 39.7692 9.50263C41.6967 11.5795 43.6169 13.9785 45.4699 16.6173C48.6508 16.9157 51.689 17.3961 54.4868 18.0416C54.5975 17.588 54.6994 17.1404 54.7899 16.7009Z" fill="#057AFF"/>
<defs>
<clipPath id="clip0">
<rect x="208" y="117" width="60.3141" height="60" fill="white"/>
</clipPath>
</defs>
</svg>