<svg xmlns="http://www.w3.org/2000/svg" viewBox="0 0 1649 922"><defs><style>.cls-1{isolation:isolate;}.cls-2{fill:#b2e6f9;}.cls-19,.cls-26,.cls-3,.cls-34{fill:#0298c7;}.cls-4{fill:#fff;}.cls-5{fill:#f9745f;}.cls-6{fill:#8cc63f;}.cls-14,.cls-7{fill:#ff9671;}.cls-8{fill:#ea6744;}.cls-9{fill:#f4bc62;}.cls-10,.cls-20,.cls-27{fill:#22386f;}.cls-11,.cls-13{fill:#d38926;}.cls-11,.cls-12,.cls-17,.cls-26,.cls-27{opacity:0.5;}.cls-12{mix-blend-mode:darken;}.cls-14{opacity:0.75;}.cls-15,.cls-16{fill:#ef603f;}.cls-16{opacity:0.8;}.cls-17,.cls-18,.cls-31{fill:#a51c1c;}.cls-18,.cls-19,.cls-36{opacity:0.3;}.cls-19,.cls-34,.cls-37{mix-blend-mode:multiply;}.cls-20{opacity:0.7;}.cls-21{fill:#3db5d1;}.cls-22{fill:#9ed14e;}.cls-23{fill:#71a027;}.cls-24{fill:none;stroke:#22386f;stroke-miterlimit:10;stroke-width:2px;}.cls-25{mix-blend-mode:soft-light;}.cls-28{fill:#f46658;}.cls-29{fill:#333;}.cls-30{opacity:0.24;}.cls-32{fill:#7c492c;}.cls-33{fill:#bf7f64;}.cls-34,.cls-37{opacity:0.61;}.cls-35{fill:#e27156;}.cls-38{opacity:0.73;}.cls-39{fill:#063472;}</style></defs><title>Feature2_1642x922</title><g class="cls-1"><g id="client"><path class="cls-2" d="M310.31,314.08a2.85,2.85,0,0,1-.58-.06,3.62,3.62,0,0,1-.56-.17,2.87,2.87,0,0,1-.52-.28,2.74,2.74,0,0,1-.46-.37,3,3,0,0,1-.88-2.12,2.88,2.88,0,0,1,.06-.59,3.65,3.65,0,0,1,.17-.56,3.28,3.28,0,0,1,.28-.52,3.25,3.25,0,0,1,.37-.46,3.36,3.36,0,0,1,.46-.37,2.3,2.3,0,0,1,.52-.27,2.24,2.24,0,0,1,.56-.17,3,3,0,0,1,2.7.81,3.32,3.32,0,0,1,.38.46,2.55,2.55,0,0,1,.27.52,2.25,2.25,0,0,1,.17.56,2.88,2.88,0,0,1,.06.59,3,3,0,0,1-3,3Z"/><path class="cls-2" d="M760.71,307a3,3,0,0,1-1.23-4.06h0a3,3,0,0,1,4.07-1.23h0a3,3,0,0,1,1.23,4.06h0a3,3,0,0,1-2.65,1.58h0A3,3,0,0,1,760.71,307Zm-441.48-2.34a3,3,0,0,1,.86-4.16h0a3,3,0,0,1,4.15.85h0a3,3,0,0,1-.85,4.16h0a3,3,0,0,1-1.65.5h0A3,3,0,0,1,319.23,304.63Zm429.12-4.1a3,3,0,0,1-1.32-4h0a3,3,0,0,1,4-1.32h0a3,3,0,0,1,1.32,4h0a3,3,0,0,1-2.68,1.64h0A2.94,2.94,0,0,1,748.35,300.53ZM331,297.08a3,3,0,0,1,1.06-4.11h0a3,3,0,0,1,4.11,1.06h0a3,3,0,0,1-1.06,4.11h0a3,3,0,0,1-1.52.42h0A3,3,0,0,1,331,297.08Zm404.79-2.7a3,3,0,0,1-1.42-4h0a3,3,0,0,1,4-1.42h0a3,3,0,0,1,1.42,4h0a3,3,0,0,1-2.71,1.71h0A2.93,2.93,0,0,1,735.84,294.38ZM343.21,290.1a3,3,0,0,1,1.22-4.07h0a3,3,0,0,1,4.06,1.23h0a3,3,0,0,1-1.22,4.06h0a3,3,0,0,1-1.42.36h0A3,3,0,0,1,343.21,290.1Zm380-1.56a3,3,0,0,1-1.52-4h0a3,3,0,0,1,4-1.52h0a3,3,0,0,1,1.51,4h0a3,3,0,0,1-2.74,1.77h0A2.91,2.91,0,0,1,723.19,288.54Zm-367.56-4.93a3,3,0,0,1,1.39-4h0a3,3,0,0,1,4,1.39h0a3,3,0,0,1-1.39,4h0a2.92,2.92,0,0,1-1.31.3h0A3,3,0,0,1,355.63,283.61ZM710.4,283a3,3,0,0,1-1.62-3.92h0a3,3,0,0,1,3.93-1.62h0a3,3,0,0,1,1.61,3.93h0a3,3,0,0,1-2.77,1.84h0A2.88,2.88,0,0,1,710.4,283Zm-342.1-5.39a3,3,0,0,1,1.54-4h0a3,3,0,0,1,3.95,1.54h0a3,3,0,0,1-1.53,4h0a2.93,2.93,0,0,1-1.21.26h0A3,3,0,0,1,368.3,277.62Zm329.17.19h0a3,3,0,0,1-1.71-3.88h0a3,3,0,0,1,3.88-1.71h0a3,3,0,0,1,1.71,3.88h0a3,3,0,0,1-2.79,1.91h0A3,3,0,0,1,697.47,277.81Zm-316.29-5.72a3,3,0,0,1,1.68-3.89h0a3,3,0,0,1,3.9,1.67h0a3,3,0,0,1-1.68,3.9h0A2.89,2.89,0,0,1,384,274h0A3,3,0,0,1,381.18,272.09Zm303.24.86a3,3,0,0,1-1.82-3.83h0a3,3,0,0,1,3.83-1.82h0a3,3,0,0,1,1.82,3.83h0a3,3,0,0,1-2.83,2h0A2.93,2.93,0,0,1,684.42,272.95ZM394.25,267a3,3,0,0,1,1.82-3.83h0A3,3,0,0,1,399.9,265h0a3,3,0,0,1-1.81,3.84h0a3,3,0,0,1-1,.17h0A3,3,0,0,1,394.25,267Zm277,1.41h0a3,3,0,0,1-1.92-3.79h0a3,3,0,0,1,3.78-1.92h0a3,3,0,0,1,1.92,3.79h0a3,3,0,0,1-2.85,2.07h0A3,3,0,0,1,671.24,268.45Zm-263.74-6a3,3,0,0,1,2-3.77h0a3,3,0,0,1,3.77,2h0a3,3,0,0,1-2,3.77h0a3.23,3.23,0,0,1-.91.14h0A3,3,0,0,1,407.5,262.46Zm250.44,1.85a3,3,0,0,1-2-3.72h0a3,3,0,0,1,3.73-2h0a3,3,0,0,1,2,3.73h0a3,3,0,0,1-2.88,2.15h0A2.79,2.79,0,0,1,657.94,264.31Zm-13.41-3.75a3,3,0,0,1-2.13-3.67h0a3,3,0,0,1,3.67-2.13h0a3,3,0,0,1,2.13,3.67h0a3,3,0,0,1-2.9,2.23h0A3,3,0,0,1,644.53,260.56Zm-223.64-2.21a3,3,0,0,1,2.09-3.7h0a3,3,0,0,1,3.69,2.08h0a3,3,0,0,1-2.08,3.7h0a2.82,2.82,0,0,1-.81.11h0A3,3,0,0,1,420.89,258.35ZM631,257.2a3,3,0,0,1-2.24-3.6h0a3,3,0,0,1,3.6-2.24h0a3,3,0,0,1,2.25,3.6h0a3,3,0,0,1-2.93,2.32h0A2.69,2.69,0,0,1,631,257.2Zm-196.59-2.49a3,3,0,0,1,2.21-3.62h0a3,3,0,0,1,3.62,2.21h0a3,3,0,0,1-2.21,3.62h0a2.94,2.94,0,0,1-.71.09h0A3,3,0,0,1,434.43,254.71Zm183-.46a3,3,0,0,1-2.35-3.53h0a3,3,0,0,1,3.53-2.35h0a3,3,0,0,1,2.35,3.53h0a3,3,0,0,1-2.93,2.41h0A3,3,0,0,1,617.42,254.25Zm-169.34-2.7a3,3,0,0,1,2.33-3.54h0a3,3,0,0,1,3.55,2.34h0a3,3,0,0,1-2.34,3.54h0a3.18,3.18,0,0,1-.61.06h0A3,3,0,0,1,448.08,251.55Zm155.66.17a3,3,0,0,1-2.46-3.46h0a3,3,0,0,1,3.46-2.46h0a3,3,0,0,1,2.45,3.46h0a3,3,0,0,1-3,2.5h0A2.78,2.78,0,0,1,603.74,251.72Zm-141.91-2.85a3,3,0,0,1,2.46-3.46h0a3,3,0,0,1,3.46,2.46h0a3,3,0,0,1-2.46,3.46h0a2.91,2.91,0,0,1-.5,0h0A3,3,0,0,1,461.83,248.87Zm128.15.75a3,3,0,0,1-2.56-3.38h0a3,3,0,0,1,3.37-2.57h0a3,3,0,0,1,2.57,3.38h0a3,3,0,0,1-3,2.59h0A2.88,2.88,0,0,1,590,249.62Zm-114.31-3a3,3,0,0,1,2.57-3.37h0a3,3,0,0,1,3.38,2.58h0a3,3,0,0,1-2.58,3.37h0a2.68,2.68,0,0,1-.4,0h0A3,3,0,0,1,475.67,246.67Zm100.5,1.28h0a3,3,0,0,1-2.68-3.29h0a3,3,0,0,1,3.3-2.67h0a3,3,0,0,1,2.67,3.29h0a3,3,0,0,1-3,2.69h0A1.61,1.61,0,0,1,576.17,247.95Zm-86.6-3a3,3,0,0,1,2.7-3.28h0a3,3,0,0,1,3.28,2.69h0a3,3,0,0,1-2.69,3.28h0l-.29,0h0A3,3,0,0,1,489.57,244.95Zm72.74,1.79a3,3,0,0,1-2.78-3.2h0a3,3,0,0,1,3.2-2.78h0a3,3,0,0,1,2.78,3.2h0a3,3,0,0,1-3,2.79h-.22Zm-58.78-3a3,3,0,0,1,2.8-3.19h0a3,3,0,0,1,3.19,2.8h0a3,3,0,0,1-2.81,3.19h-.19A3,3,0,0,1,503.53,243.72ZM548.42,246a3,3,0,0,1-2.89-3.11h0a3,3,0,0,1,3.12-2.88h0a3,3,0,0,1,2.88,3.11h0a3,3,0,0,1-3,2.89h-.11Zm-30.9-3a3,3,0,0,1,2.91-3.09h0a3,3,0,0,1,3.08,2.91h0a3,3,0,0,1-2.9,3.09h-.1A3,3,0,0,1,517.52,243Zm17,2.73a3,3,0,0,1-3-3h0a3,3,0,0,1,3-3h0a3,3,0,0,1,3,3h0a3,3,0,0,1-3,3h0Z"/><path class="cls-2" d="M774.43,314.08a3,3,0,0,1-2.12-.88,2.82,2.82,0,0,1-.38-.46,3.2,3.2,0,0,1-.27-.52,2.76,2.76,0,0,1-.17-.56,2.85,2.85,0,0,1-.06-.58,2.88,2.88,0,0,1,.06-.59,2.78,2.78,0,0,1,.17-.56,3.24,3.24,0,0,1,.27-.52,2.76,2.76,0,0,1,.38-.45,3,3,0,0,1,2.7-.82,2.32,2.32,0,0,1,.57.17,2.48,2.48,0,0,1,.51.27,2.79,2.79,0,0,1,.46.38,2.73,2.73,0,0,1,.37.45,3.32,3.32,0,0,1,.28.52,3.7,3.7,0,0,1,.17.56,2.88,2.88,0,0,1,.06.59,2.85,2.85,0,0,1-.06.58,3.67,3.67,0,0,1-.17.56,3.28,3.28,0,0,1-.28.52,2.79,2.79,0,0,1-.37.46,2.74,2.74,0,0,1-.46.37,3.18,3.18,0,0,1-.51.28,3.77,3.77,0,0,1-.57.17A2.85,2.85,0,0,1,774.43,314.08Z"/><path class="cls-2" d="M960.78,314.08a2.85,2.85,0,0,1-.58-.06,3.62,3.62,0,0,1-.56-.17,2.87,2.87,0,0,1-.52-.28,2.74,2.74,0,0,1-.46-.37,3,3,0,0,1-.88-2.12,2.88,2.88,0,0,1,.06-.59,3.65,3.65,0,0,1,.17-.56,3.28,3.28,0,0,1,.28-.52,3.25,3.25,0,0,1,.37-.46,3.36,3.36,0,0,1,.46-.37,2.3,2.3,0,0,1,.52-.27,2.24,2.24,0,0,1,.56-.17,3,3,0,0,1,2.7.81,3.32,3.32,0,0,1,.38.46,2.55,2.55,0,0,1,.27.52,2.25,2.25,0,0,1,.17.56,2.88,2.88,0,0,1,.06.59,3,3,0,0,1-3,3Z"/><path class="cls-2" d="M1411.18,307a3,3,0,0,1-1.23-4.06h0a3,3,0,0,1,4.07-1.23h0a3,3,0,0,1,1.23,4.06h0a3,3,0,0,1-2.65,1.58h0A3,3,0,0,1,1411.18,307ZM969.7,304.63a3,3,0,0,1,.86-4.16h0a3,3,0,0,1,4.15.85h0a3,3,0,0,1-.85,4.16h0a3,3,0,0,1-1.65.5h0A3,3,0,0,1,969.7,304.63Zm429.12-4.1a3,3,0,0,1-1.32-4h0a3,3,0,0,1,4-1.32h0a3,3,0,0,1,1.32,4h0a3,3,0,0,1-2.68,1.64h0A2.94,2.94,0,0,1,1398.82,300.53Zm-417.3-3.45a3,3,0,0,1,1.06-4.11h0a3,3,0,0,1,4.11,1.06h0a3,3,0,0,1-1.06,4.11h0a3,3,0,0,1-1.52.42h0A3,3,0,0,1,981.52,297.08Zm404.79-2.7a3,3,0,0,1-1.42-4h0a3,3,0,0,1,4-1.42h0a3,3,0,0,1,1.42,4h0a3,3,0,0,1-2.71,1.71h0A2.93,2.93,0,0,1,1386.31,294.38ZM993.68,290.1A3,3,0,0,1,994.9,286h0a3,3,0,0,1,4.06,1.23h0a3,3,0,0,1-1.22,4.06h0a3,3,0,0,1-1.42.36h0A3,3,0,0,1,993.68,290.1Zm380-1.56a3,3,0,0,1-1.52-4h0a3,3,0,0,1,4-1.52h0a3,3,0,0,1,1.51,4h0a3,3,0,0,1-2.74,1.77h0A2.91,2.91,0,0,1,1373.66,288.54Zm-367.56-4.93a3,3,0,0,1,1.39-4h0a3,3,0,0,1,4,1.39h0a3,3,0,0,1-1.39,4h0a2.92,2.92,0,0,1-1.31.3h0A3,3,0,0,1,1006.1,283.61Zm354.77-.6a3,3,0,0,1-1.62-3.92h0a3,3,0,0,1,3.93-1.62h0a3,3,0,0,1,1.61,3.93h0a3,3,0,0,1-2.77,1.84h0A2.88,2.88,0,0,1,1360.87,283Zm-342.1-5.39a3,3,0,0,1,1.54-4h0a3,3,0,0,1,3.95,1.54h0a3,3,0,0,1-1.53,4h0a2.93,2.93,0,0,1-1.21.26h0A3,3,0,0,1,1018.77,277.62Zm329.17.19h0a3,3,0,0,1-1.71-3.88h0a3,3,0,0,1,3.88-1.71h0a3,3,0,0,1,1.71,3.88h0A3,3,0,0,1,1349,278h0A3,3,0,0,1,1347.94,277.81Zm-316.29-5.72a3,3,0,0,1,1.68-3.89h0a3,3,0,0,1,3.9,1.67h0a3,3,0,0,1-1.68,3.9h0a2.89,2.89,0,0,1-1.11.22h0A3,3,0,0,1,1031.65,272.09Zm303.24.86a3,3,0,0,1-1.82-3.83h0a3,3,0,0,1,3.83-1.82h0a3,3,0,0,1,1.82,3.83h0a3,3,0,0,1-2.83,2h0A2.93,2.93,0,0,1,1334.89,272.95ZM1044.72,267a3,3,0,0,1,1.82-3.83h0a3,3,0,0,1,3.83,1.81h0a3,3,0,0,1-1.81,3.84h0a3,3,0,0,1-1,.17h0A3,3,0,0,1,1044.72,267Zm277,1.41h0a3,3,0,0,1-1.92-3.79h0a3,3,0,0,1,3.78-1.92h0a3,3,0,0,1,1.92,3.79h0a3,3,0,0,1-2.85,2.07h0A3,3,0,0,1,1321.71,268.45Zm-263.74-6a3,3,0,0,1,2-3.77h0a3,3,0,0,1,3.77,2h0a3,3,0,0,1-2,3.77h0a3.23,3.23,0,0,1-.91.14h0A3,3,0,0,1,1058,262.46Zm250.44,1.85a3,3,0,0,1-2-3.72h0a3,3,0,0,1,3.73-2h0a3,3,0,0,1,2,3.73h0a3,3,0,0,1-2.88,2.15h0A2.79,2.79,0,0,1,1308.41,264.31ZM1295,260.56a3,3,0,0,1-2.13-3.67h0a3,3,0,0,1,3.67-2.13h0a3,3,0,0,1,2.13,3.67h0a3,3,0,0,1-2.9,2.23h0A3,3,0,0,1,1295,260.56Zm-223.64-2.21a3,3,0,0,1,2.09-3.7h0a3,3,0,0,1,3.69,2.08h0a3,3,0,0,1-2.08,3.7h0a2.82,2.82,0,0,1-.81.11h0A3,3,0,0,1,1071.36,258.35Zm210.13-1.15a3,3,0,0,1-2.24-3.6h0a3,3,0,0,1,3.6-2.24h0a3,3,0,0,1,2.25,3.6h0a3,3,0,0,1-2.93,2.32h0A2.69,2.69,0,0,1,1281.49,257.2Zm-196.59-2.49a3,3,0,0,1,2.21-3.62h0a3,3,0,0,1,3.62,2.21h0a3,3,0,0,1-2.21,3.62h0a2.94,2.94,0,0,1-.71.09h0A3,3,0,0,1,1084.9,254.71Zm183-.46a3,3,0,0,1-2.35-3.53h0a3,3,0,0,1,3.53-2.35h0a3,3,0,0,1,2.35,3.53h0a3,3,0,0,1-2.93,2.41h0A3,3,0,0,1,1267.89,254.25Zm-169.34-2.7a3,3,0,0,1,2.33-3.54h0a3,3,0,0,1,3.55,2.34h0a3,3,0,0,1-2.34,3.54h0a3.18,3.18,0,0,1-.61.06h0A3,3,0,0,1,1098.55,251.55Zm155.66.17a3,3,0,0,1-2.46-3.46h0a3,3,0,0,1,3.46-2.46h0a3,3,0,0,1,2.45,3.46h0a3,3,0,0,1-3,2.5h0A2.78,2.78,0,0,1,1254.21,251.72Zm-141.91-2.85a3,3,0,0,1,2.46-3.46h0a3,3,0,0,1,3.46,2.46h0a3,3,0,0,1-2.46,3.46h0a2.91,2.91,0,0,1-.5,0h0A3,3,0,0,1,1112.3,248.87Zm128.15.75a3,3,0,0,1-2.56-3.38h0a3,3,0,0,1,3.37-2.57h0a3,3,0,0,1,2.57,3.38h0a3,3,0,0,1-3,2.59h0A2.88,2.88,0,0,1,1240.45,249.62Zm-114.31-3a3,3,0,0,1,2.57-3.37h0a3,3,0,0,1,3.38,2.58h0a3,3,0,0,1-2.58,3.37h0a2.68,2.68,0,0,1-.4,0h0A3,3,0,0,1,1126.14,246.67Zm100.5,1.28h0a3,3,0,0,1-2.68-3.29h0a3,3,0,0,1,3.3-2.67h0a3,3,0,0,1,2.67,3.29h0a3,3,0,0,1-3,2.69h0A1.61,1.61,0,0,1,1226.64,247.95Zm-86.6-3a3,3,0,0,1,2.7-3.28h0a3,3,0,0,1,3.28,2.69h0a3,3,0,0,1-2.69,3.28h0l-.29,0h0A3,3,0,0,1,1140,244.95Zm72.74,1.79a3,3,0,0,1-2.78-3.2h0a3,3,0,0,1,3.2-2.78h0A3,3,0,0,1,1216,244h0a3,3,0,0,1-3,2.79h-.22Zm-58.78-3a3,3,0,0,1,2.8-3.19h0a3,3,0,0,1,3.19,2.8h0a3,3,0,0,1-2.81,3.19H1157A3,3,0,0,1,1154,243.72Zm44.89,2.26a3,3,0,0,1-2.89-3.11h0a3,3,0,0,1,3.12-2.88h0a3,3,0,0,1,2.88,3.11h0a3,3,0,0,1-3,2.89h-.11Zm-30.9-3a3,3,0,0,1,2.91-3.09h0a3,3,0,0,1,3.08,2.91h0a3,3,0,0,1-2.9,3.09h-.1A3,3,0,0,1,1168,243Zm17,2.73a3,3,0,0,1-3-3h0a3,3,0,0,1,3-3h0a3,3,0,0,1,3,3h0a3,3,0,0,1-3,3h0Z"/><path class="cls-2" d="M1424.9,314.08a3,3,0,0,1-2.12-.88,2.82,2.82,0,0,1-.38-.46,3.2,3.2,0,0,1-.27-.52,2.76,2.76,0,0,1-.17-.56,2.85,2.85,0,0,1-.06-.58,2.88,2.88,0,0,1,.06-.59,2.78,2.78,0,0,1,.17-.56,3.24,3.24,0,0,1,.27-.52,2.76,2.76,0,0,1,.38-.45,3,3,0,0,1,2.7-.82,2.32,2.32,0,0,1,.57.17,2.48,2.48,0,0,1,.51.27,2.79,2.79,0,0,1,.46.38,2.73,2.73,0,0,1,.37.45,3.32,3.32,0,0,1,.28.52,3.7,3.7,0,0,1,.17.56,2.88,2.88,0,0,1,.06.59,2.85,2.85,0,0,1-.06.58,3.67,3.67,0,0,1-.17.56,3.28,3.28,0,0,1-.28.52,2.79,2.79,0,0,1-.37.46,2.74,2.74,0,0,1-.46.37,3.18,3.18,0,0,1-.51.28,3.77,3.77,0,0,1-.57.17A2.85,2.85,0,0,1,1424.9,314.08Z"/><circle class="cls-2" cx="542.37" cy="255.19" r="128.64"/><path class="cls-3" d="M478.87,177.53c-13.52-.25-24.62,7.26-24.87,20.78a24.41,24.41,0,0,0,6.93,17.52,47,47,0,0,0-1.93,7.06c-.38,2.07.23,3.06,2.75,1.81a36.46,36.46,0,0,0,5.9-4A24.49,24.49,0,0,0,503,199.21C503.21,185.69,492.39,177.78,478.87,177.53Z"/><path class="cls-4" d="M465.76,209,476,202.61l5.42,3.52a3,3,0,0,0,4-.74l8.44-11.56a.74.74,0,0,0-1-1.07l-9.09,5.48-7.08-4.59a3,3,0,0,0-4.16,1L464.72,208A.74.74,0,0,0,465.76,209Z"/><path class="cls-3" d="M633.46,214.49c-13.66-2.28-26,3.67-28.31,17.33a25,25,0,0,0,4.4,18.79,48.16,48.16,0,0,0-3,6.87c-.69,2-.23,3.13,2.51,2.24a37.34,37.34,0,0,0,6.57-3.15,25.08,25.08,0,0,0,39-16.5C656.9,226.39,647.13,216.76,633.46,214.49Z"/><path class="cls-4" d="M613.44,242.48l12.34-3.34,4.42,5.23a3.14,3.14,0,0,0,4.29.48l12.1-9.15a.79.79,0,0,0-.67-1.39L635,237.09l-5.78-6.82a3.14,3.14,0,0,0-4.53-.27l-12,11.15A.79.79,0,0,0,613.44,242.48Z"/><path class="cls-4" d="M525.17,220.3,514,242.7a9,9,0,0,0,3.07,11.5l33.18,22A12.15,12.15,0,0,0,567,272.85l13.58-20.12a9,9,0,0,0-2.2-12.31c-9.26-6.68-26.23-18.13-41.87-24.46A9,9,0,0,0,525.17,220.3Z"/><path class="cls-2" d="M552.59,253l7.64,21.52L557.49,252l20-3.9a.7.7,0,0,0-.2-1.39l-30.36,1.81-15.55-29.49a.62.62,0,0,0-1.14.5l9.13,23.77-21.85,6.51L541.16,248l2.58,6.73Z"/><path class="cls-4" d="M444,260.14l.22,19.6a7,7,0,0,0,6.26,6.9L481.42,290a9.5,9.5,0,0,0,10.48-8.33l2.24-18.85a7,7,0,0,0-5.94-7.78c-8.83-1.33-24.74-3.22-37.88-2A7,7,0,0,0,444,260.14Z"/><path class="cls-2" d="M474.77,273.06l13,12.23-10-14.65,12.52-9.87a.55.55,0,0,0-.64-.89L469.24,272l-21.37-14.94a.49.49,0,0,0-.61.75l14.86,13.26-12.87,12.35L465,273.66l4.21,3.75Z"/><path class="cls-4" d="M568.86,304.16l-4.59,22a8.05,8.05,0,0,0,5.3,9.27l33.81,11.46a10.9,10.9,0,0,0,13.79-6.73l7.17-20.55a8.06,8.06,0,0,0-4.73-10.17c-9.55-3.67-26.9-9.72-41.91-11.62A8,8,0,0,0,568.86,304.16Z"/><path class="cls-2" d="M600.11,326.23l11.55,16.91-7.52-18.86,16.46-8a.63.63,0,0,0-.49-1.16l-25.92,8.52-20.23-22a.56.56,0,0,0-.87.69l13.36,18.52L569,331.53l20.07-7,3.78,5.24Z"/><path class="cls-5" d="M569.13,193l2,6.08a1.11,1.11,0,0,1-1.45,1.38,41.64,41.64,0,0,1-10.43-5.6l-14.76,2.67a6.54,6.54,0,0,1-7.38-4.64l-4.56-15.8a6.54,6.54,0,0,1,4.85-8.2c9.43-2.11,18.1-4.21,30.58-3.94a6.52,6.52,0,0,1,6.09,4.67l4.33,14.46a6.54,6.54,0,0,1-5.32,8.35Z"/><path class="cls-5" d="M525.87,333.53l2.3,7.51a1.36,1.36,0,0,1-1.81,1.66c-3.23-1.32-8.76-3.85-12.67-7.14L489,339.34a8,8,0,0,1-9-5.88l-4.73-16.7a8,8,0,0,1,6.17-9.95c11.63-2.35,28.85-5.58,44.17-4.93a8,8,0,0,1,7.36,5.89l4.47,15a8,8,0,0,1-6.75,10.12Z"/><circle class="cls-4" cx="588.59" cy="276.46" r="3.43"/><circle class="cls-4" cx="437.46" cy="234.51" r="2.13" transform="translate(-42.65 360.45) rotate(-42.89)"/><circle class="cls-4" cx="513.01" cy="278.21" r="2.13" transform="translate(-52.19 423.56) rotate(-42.89)"/><circle class="cls-4" cx="597.11" cy="165.56" r="2.13" transform="translate(46.96 450.68) rotate(-42.89)"/><circle class="cls-4" cx="507.49" cy="356.64" r="2.13" transform="translate(-107.05 440.77) rotate(-42.89)"/><circle class="cls-4" cx="523.06" cy="198.18" r="2.13" transform="translate(4.96 409) rotate(-42.89)"/><circle class="cls-4" cx="603.86" cy="196.05" r="3.88" transform="translate(28.01 463.42) rotate(-42.89)"/><circle class="cls-4" cx="448.5" cy="310.05" r="3.88" transform="translate(-91.12 388.16) rotate(-42.89)"/><path class="cls-4" d="M633.24,265.19,630,275.46a1.71,1.71,0,0,0,2,2.19l9.43-2.08a1.71,1.71,0,0,0,1-2.7l-6.17-8.19A1.71,1.71,0,0,0,633.24,265.19Z"/><path class="cls-4" d="M510.36,160.7l-2.8,8.83a1.47,1.47,0,0,0,1.72,1.88l8.11-1.79a1.47,1.47,0,0,0,.86-2.32l-5.3-7A1.47,1.47,0,0,0,510.36,160.7Z"/><path class="cls-4" d="M552.83,349.79l-2.8,8.83a1.47,1.47,0,0,0,1.72,1.88l8.11-1.79a1.47,1.47,0,0,0,.86-2.32l-5.3-7A1.47,1.47,0,0,0,552.83,349.79Z"/><path class="cls-4" d="M498.79,322.27a3.46,3.46,0,1,1-3.46-3.46A3.46,3.46,0,0,1,498.79,322.27Zm7.66-5a3.46,3.46,0,1,0,3.46,3.46A3.46,3.46,0,0,0,506.45,317.26Zm11-1.54a3.46,3.46,0,1,0,3.46,3.46A3.46,3.46,0,0,0,517.47,315.72Z"/><path class="cls-4" d="M550.43,182.31a2.82,2.82,0,1,1-2.89-2.74A2.82,2.82,0,0,1,550.43,182.31Zm6.13-4.23a2.82,2.82,0,1,0,2.89,2.74A2.82,2.82,0,0,0,556.56,178.07Zm8.94-1.48a2.82,2.82,0,1,0,2.89,2.74A2.82,2.82,0,0,0,565.5,176.6Z"/><circle class="cls-2" cx="1192.84" cy="258.19" r="80.15"/><path class="cls-4" d="M1221.36,280.8l3.88,12.64a2.29,2.29,0,0,1-3.05,2.79c-5.43-2.22-14.73-6.49-21.32-12l-34,5a13.52,13.52,0,0,1-15.06-9.9l-8-28.1a13.52,13.52,0,0,1,10.38-16.74c19.57-4,40.93-8,66.71-6.93a13.48,13.48,0,0,1,12.38,9.9l7.53,25.31a13.52,13.52,0,0,1-11.36,17Z"/><circle class="cls-4" cx="1137.3" cy="282.51" r="2.06" transform="translate(111.8 849.62) rotate(-42.89)"/><circle class="cls-4" cx="1249.27" cy="291.45" r="2.06" transform="translate(135.65 928.21) rotate(-42.89)"/><circle class="cls-4" cx="1184.83" cy="201" r="3.75" transform="translate(179.98 860.17) rotate(-42.89)"/><path class="cls-4" d="M1187.61,307.7l-2.71,8.54a1.42,1.42,0,0,0,1.66,1.82l7.84-1.73a1.42,1.42,0,0,0,.83-2.24l-5.13-6.81A1.42,1.42,0,0,0,1187.61,307.7Z"/><circle class="cls-6" cx="1193.51" cy="257.07" r="17.3"/><polygon class="cls-4" points="1191.15 267.27 1182.88 260.19 1184.83 257.91 1190.44 262.72 1200.26 246.88 1202.81 248.46 1191.15 267.27"/><path class="cls-2" d="M297.25,409.38l18.21-38.15a2.39,2.39,0,0,1,3-1.2l2,.79a2.39,2.39,0,0,1,1.29,3.27L308,402.52l-10.47,7.65Z"/><rect class="cls-2" x="34.92" y="734.5" width="460.58" height="6.5" rx="3.25" ry="3.25"/><path class="cls-7" d="M266.42,548.33a476.48,476.48,0,0,1,72.85,21.55,20.56,20.56,0,0,1,9.45,31C300.13,670.19,273.61,716,273.61,716l16.31,4.83V734.5H246l55.83-126.67-34.67-.67S260,560.83,266.42,548.33Z"/><polygon class="cls-8" points="314.31 610.15 300.96 609.81 301.83 607.83 314.36 608.15 314.31 610.15"/><path class="cls-9" d="M273,673.2,246,734.5h43.92V720.83L273.61,716s7.33-12.54,21-34.14Z"/><path class="cls-10" d="M270.83,614.08H287L304.16,558l-37.74-9.69S265.33,603.66,270.83,614.08Z"/><path class="cls-3" d="M248.42,741H333s-3.33-9.67-16.33-13.67S288.5,716,288.5,716l-11.17,18.5H248.42Z"/><path class="cls-7" d="M326,629.66l36.83,94.67s-3.5,4-3.5,13H385.5l6.65-16.17-15.48-3.67-24.38-131Z"/><path class="cls-9" d="M369.32,678l-22,6.37,15.55,40s-3.5,4-3.5,13H385.5l6.65-16.17-15.48-3.67Z"/><path class="cls-5" d="M282.69,701c-1.74,2.82-3.23,5.27-4.48,7.32l-18-6,3.46-7.86Zm-13-20.22-3.47,7.87,19.8,7q2.08-3.34,4.49-7.18Zm101.11,5.18-20.74,5.54,2.65,6.8,19.24-6.18Zm3.65,19.6-1.28-6.85-18.59,4.41,2.81,7.21Z"/><path class="cls-5" d="M362.83,724.33s-3.5,4-3.5,13h12C371.33,726.5,362.83,724.33,362.83,724.33Z"/><path class="cls-3" d="M355.58,741h81.58s-3.33-9.67-16.33-13.67S392.67,716,392.67,716L381.5,734.5H355.58Z"/><path class="cls-4" d="M327,632.35l.88,2.26c7.36-10.81,15-21.74,22.6-32.61a21.62,21.62,0,0,0,3.3-7.25l-1.53-8.24h0a19.82,19.82,0,0,1-3.4,14.35C341.53,611.35,334.17,621.9,327,632.35Z"/><polygon class="cls-11" points="283.79 719.01 269.48 734.5 277.33 734.5 286.24 719.74 283.79 719.01"/><polygon class="cls-11" points="387.42 720.05 373.17 734.5 381.5 734.5 389.87 720.64 387.42 720.05"/><polygon class="cls-8" points="376.67 717.5 377.89 723.85 379.87 723.54 378.81 718 376.67 717.5"/><path class="cls-5" d="M261.71,734.5c-.92-10.31-6.82-13.23-9.52-14l-6.19,14Z"/><polygon class="cls-9" points="247.42 741 195.9 636.73 211.15 636.73 255.84 741 247.42 741"/><polygon class="cls-9" points="156.84 741 193.65 636.73 178.4 636.73 148.42 741 156.84 741"/><g class="cls-12"><polygon class="cls-13" points="193.37 637.83 178.19 637.83 174.26 651.12 188.56 651.12 193.37 637.83"/><polygon class="cls-13" points="211.62 637.83 196.44 637.83 203.01 651.12 217.31 651.12 211.62 637.83"/></g><path class="cls-14" d="M205.17,493.71s21.52,11.33,31,5.62a26.19,26.19,0,0,0,11.67-14.83l4.83-8.83,5.17-46.17s14.48-14.42,16.17-18.17l-3.58-12.13,6.37-12.5-2.37-2s-16.38,14-24.63,22.75L246,423.83l-13.12,34.5-28.62,29.13Z"/><path class="cls-10" d="M192.14,301.73c-1.53,13.08-13.29,23.84-26.12,23.84s-23.23-10.67-23.23-23.84,10.54-21.92,23.23-23.84C180.87,275.64,193.91,286.59,192.14,301.73Z"/><path class="cls-10" d="M234,309s11.63-4.79,19.75,1.08,5.86,27.78-13.14,36.4l-20.82-9.28Z"/><path class="cls-10" d="M170.34,389.66a119.85,119.85,0,0,0-4-30.16c-3.64-13.72-4.15-56,25.83-60C218.29,296,234,309,234,309S209,385.82,170.34,389.66Z"/><path class="cls-15" d="M151.17,513.33s-9.75-83.75,32.25-147.5c0,0-4.25-9.12,1.63-17.87l12.38,7.88-12,63.12,31.87,59.55s-2.42,5.58-10.58,10.75L221,528S161.92,525.7,151.17,513.33Z"/><path class="cls-7" d="M237.08,361.83c4.25-13,5.72-30.56,5.72-30.56L185,348c-5.87,8.75-1.62,17.88-1.62,17.88a184.93,184.93,0,0,0-21.31,45.29c3.78,3.51,12.5,10.29,24.73,11.88.74.1,1.46.14,2.18.17l-3.73-3.65s4.27-20.68,18-20.85c8.93-.11,13.84,3.91,19.14-6.19,3.22-6.15,6.24-12.42,7.47-15a1.85,1.85,0,0,1,1.92-1c1.82.24,6,1.17,6.63.17C239.23,375.39,235,368.2,237.08,361.83Z"/><path class="cls-16" d="M212.36,399.21l.13,0-.15,0Z"/><path class="cls-16" d="M207.59,398.77c-3.7-.87-9.26-3.19-16.37-9.11l-5.44,27.92s4.34-18.53,17.54-18.91A37.68,37.68,0,0,1,207.59,398.77Z"/><path class="cls-16" d="M212.48,399.19l.18,0Z"/><path class="cls-10" d="M242.79,331.27s-15,24.89-59.61,20.22l-2.6-6.58,56.25-19.83Z"/><path class="cls-7" d="M295.51,428.06c5.51-1.91,12.19-6.49,18.33-11.47,1.08-1.85,3.34-20.55,3.34-20.55l-2.95-6.33-4.58,9.12-12.4,9.65a71.78,71.78,0,0,1-.23-7.21c7.18-11.25,1.86-13.82,1.86-13.82s-8.28,10.17-9.91,14.74c-2,5.51-1.87,17-1.87,17S285.32,432,295.51,428.06Z"/><path class="cls-7" d="M175.92,419.61c-14.79,5.36-13.78,25.17-13.78,25.17l67.44,44.74a25.16,25.16,0,0,0,35.82-8.62L297.25,425l-9.17-9.5-42.92,48.83L212.54,434S191.17,414.08,175.92,419.61Z"/><path class="cls-15" d="M226.17,446.68,212.54,434s-21.37-19.95-36.62-14.42c-14.79,5.36-13.78,25.17-13.78,25.17l44.51,29.53C212.36,461.55,222.89,450.08,226.17,446.68Z"/><ellipse cx="227.5" cy="357.44" rx="3.97" ry="2.23" transform="translate(-184.33 457.03) rotate(-71.12)"/><path class="cls-10" d="M232.7,348.43a25.49,25.49,0,0,0-11-2L221.6,345c7.93-1.66,11.6,1.89,11.81,2Z"/><polygon class="cls-15" points="243.7 462.97 245.17 464.33 236.72 473.9 235.25 472.54 243.7 462.97"/><polygon class="cls-15" points="294.2 430.36 290.63 431.22 290.05 429.31 295.51 428.06 294.2 430.36"/><path class="cls-17" d="M216.27,480.66,181.2,457.4l-1.11,1.67,35,23.2C215.55,481.68,216,481.13,216.27,480.66Z"/><path class="cls-18" d="M183.67,504.7c-8-24.28-19.33-21.88-24.67-30.4-6.16-9.84-5.92-22.07-5-29.26-6.32,38-2.8,68.29-2.8,68.29C161.92,525.7,221,528,221,528S188.61,519.77,183.67,504.7Z"/><rect class="cls-3" x="95.66" y="418.77" width="39.96" height="119.68" rx="11.41" ry="11.41" transform="matrix(0.95, -0.31, 0.31, 0.95, -142.39, 59.25)"/><path class="cls-19" d="M149.62,518.47l-5.92-18.19c-33.5-5.14-51.82-36.08-57.34-47.08L108.73,522l39.83,5.87A11.37,11.37,0,0,0,149.62,518.47Z"/><path class="cls-3" d="M89.36,517.39l11.17,122.27H258.69a14.92,14.92,0,0,0,14.9-15.79l-4.47-76.78a14.19,14.19,0,0,0-11.15-13L107.52,501.35A15,15,0,0,0,89.36,517.39Z"/><path class="cls-20" d="M101.35,499.28l.63,1.93a14.1,14.1,0,0,1,5.17.15l39.68,8.54-.74-2.26-38.52-8.23A16.08,16.08,0,0,0,101.35,499.28Z"/><path class="cls-19" d="M201,601.5c-27.17-30-56.83-7-79.5-20.5s-32.14-63.6-32.14-63.6l11.17,122.27H258.69a14.92,14.92,0,0,0,14.9-15.79l-.42-7.22h0C248.49,635.64,228.17,631.5,201,601.5Z"/><rect class="cls-2" x="302.29" y="351.09" width="2" height="16.29" transform="translate(-136.65 193.45) rotate(-29.18)"/><rect class="cls-2" x="295.91" y="364.12" width="2" height="11.46" transform="translate(-171.58 443.73) rotate(-60.2)"/><path class="cls-17" d="M173.11,418.72a20.29,20.29,0,0,0-8.74,9.24l1.81.87a18.14,18.14,0,0,1,9.3-9C174.66,419.47,173.86,419.11,173.11,418.72Z"/><polygon class="cls-8" points="273.63 716 270.33 721.56 272.02 722.65 275.61 716.59 273.63 716"/><polygon class="cls-21" points="293.82 718.45 285.25 733.07 286.93 734.15 295.67 719.27 293.82 718.45"/><polygon class="cls-21" points="397.47 718.25 388.9 732.87 390.58 733.95 399.32 719.07 397.47 718.25"/><rect class="cls-4" x="156.67" y="639.66" width="75" height="2.1"/><path class="cls-22" d="M147.13,667c-10.85,1.57-23-7.33-17.54-26.21,5-17.31,37.54-25.71,37.54-25.71s3.42,18.23,1.3,30.5C166.79,655,159.33,665.22,147.13,667Z"/><path class="cls-6" d="M113,651.83c-13-4-33.66-27.92-3.68-54.42,8.87-7.84,32.59-22.93,34.75-25.5,0,0,7.5,38.58,6.08,50.58S136.23,658.83,113,651.83Z"/><path class="cls-23" d="M152.12,622.73c.08-.67.13-1.44.16-2.25-.68.31-1.36.63-2,1,0,.37-.06.73-.09,1.06-1.06,9-8.38,25-21.8,29.4.07.69.17,1.35.3,2C143.07,649.32,151,632.42,152.12,622.73Z"/><path class="cls-6" d="M130.82,682.89l-1.95-.46c7.36-31.43,33.34-60.16,33.61-60.45l1.48,1.35C163.7,623.62,138.06,652,130.82,682.89Zm-13.42-2.4q-.21-1-.41-1.9a102.08,102.08,0,0,1,3.75-54.42A158.8,158.8,0,0,1,137.18,590l-1.68-1.09a160.76,160.76,0,0,0-16.65,34.6A104.08,104.08,0,0,0,115,679q.2,1,.41,1.93Zm-14.17-18.59c-9.49-14-33.9-41.09-34.15-41.36l-1.48,1.34c.24.27,24.56,27.23,34,41.14,5.14,7.59,4,17.09,4,17.19l2,.26C107.6,680,108.81,670.13,103.23,661.89Z"/><path class="cls-4" d="M135.51,588.91a160.76,160.76,0,0,0-16.65,34.6,105.48,105.48,0,0,0-5.73,28.35c.67.2,1.33.37,2,.52a103.46,103.46,0,0,1,5.65-28.22C125.24,611.35,135.51,588.91,135.51,588.91Z"/><path class="cls-4" d="M162.48,622c-.21.23-16.92,18.71-27.34,42.21a15.79,15.79,0,0,0,1.72,1C147.12,642,162.48,622,162.48,622Z"/><path class="cls-22" d="M79.72,662.17c9.92,6.17,23.14-.73,23.14-.73q-.42-.75-.92-1.48c-9.56-14.12-34.35-41.16-34.35-41.16S63.82,652.29,79.72,662.17Z"/><path class="cls-15" d="M119.73,679.58H87.42c0,59.75,17.51,61.42,17.51,61.42H129.6s17.51-1.67,17.51-61.42Z"/><path class="cls-18" d="M122.44,730.83c-3.46-13-8.37-9.88-17.19-14.83-13.9-7.81-14.05-23.39-14.05-23.39H87.72c2.33,47,17.2,48.39,17.2,48.39H129.6s2.2-.21,5-3.14C130,738.67,124.34,738,122.44,730.83Z"/><rect class="cls-9" x="87.72" y="691.6" width="47.67" height="2"/><path class="cls-23" d="M76.74,659.83l7.41-6.71-1.36-1.47-7.42,6.72C75.8,658.88,76.26,659.37,76.74,659.83Z"/><polygon class="cls-23" points="132.74 638.58 140.31 645.05 138.56 646.19 131.46 640.12 132.74 638.58"/><path class="cls-23" d="M155.88,656l-1.67,1.1,3.55,5.6q.82-.59,1.59-1.24Z"/><path class="cls-23" d="M163.82,647.11l-.41,2,3.84.86q.34-1,.61-1.92Z"/><path class="cls-23" d="M103,624.56l.71-2L94.09,622c-.09.67-.15,1.34-.19,2Z"/><path class="cls-23" d="M120.09,594.39l1.72-1-2.44-3.74-1.62,1.18Z"/><polygon class="cls-23" points="144.38 624.04 150.45 627.16 149.22 628.78 143.53 625.85 144.38 624.04"/><path class="cls-10" d="M218.41,383.43a2.58,2.58,0,0,1-1.84,1.08,2.94,2.94,0,0,1-3.43-2.45,2.57,2.57,0,0,1,.42-2.09l-2-.53a5,5,0,0,0-.41,2.93,4.94,4.94,0,0,0,4.87,4.18,5,5,0,0,0,3.62-1.54Z"/><path class="cls-24" d="M200.41,356c10.1-1.91,29.11-7.66,42.39-24.76"/><path class="cls-24" d="M149.54,280.14s19.13-8.06,34,3.19"/><g class="cls-25"><polygon class="cls-21" points="244.94 531.88 240.8 534.83 245.42 536.94 250.03 539.04 249.55 533.99 249.38 532.2 245.64 531.38 244.94 531.88"/><polygon class="cls-21" points="239.08 607.44 242.76 611.64 246.44 615.84 248.24 610.55 250.03 605.26 244.56 606.35 239.08 607.44"/><polygon class="cls-21" points="128.82 556.49 125.26 560.79 121.7 565.09 127.2 566.03 132.71 566.96 130.77 561.73 128.82 556.49"/><polygon class="cls-21" points="158.48 582.78 162.16 586.98 165.84 591.18 167.64 585.89 169.44 580.6 163.96 581.69 158.48 582.78"/><polygon class="cls-21" points="124.84 527.4 120.26 524.2 115.68 521 115.2 526.56 114.71 532.13 119.78 529.77 124.84 527.4"/><polygon class="cls-21" points="229.86 562.16 229.14 567.09 233.77 565.24 238.39 563.4 234.48 560.32 230.57 557.23 229.86 562.16"/><polygon class="cls-21" points="269.28 582.29 265.83 585.55 270.38 586.91 271.45 587.23 271.07 580.6 269.28 582.29"/><polygon class="cls-21" points="204.29 535.01 198.93 533.86 193.57 532.71 195.25 537.93 196.93 543.15 200.61 539.08 204.29 535.01"/><polygon class="cls-21" points="202.39 585.57 205.9 581.7 209.4 577.82 204.29 576.73 199.19 575.63 200.79 580.6 202.39 585.57"/><polygon class="cls-21" points="182.33 628.05 185.94 624.07 189.54 620.08 184.29 618.95 179.03 617.82 180.68 622.94 182.33 628.05"/><polygon class="cls-21" points="215.67 621.34 219.29 625.33 220.93 620.2 222.58 615.07 217.31 616.21 212.05 617.35 215.67 621.34"/><polygon class="cls-21" points="158.84 553.24 162.45 557.23 164.1 552.1 165.75 546.97 160.48 548.11 155.22 549.25 158.84 553.24"/><polygon class="cls-21" points="108.56 593.97 108.13 599.34 112.99 597.03 117.86 594.71 113.42 591.65 108.98 588.6 108.56 593.97"/></g><rect class="cls-2" x="540.92" y="734.5" width="470.58" height="6.5" rx="3.25" ry="3.25"/><rect class="cls-5" x="810.18" y="661.14" width="94.92" height="2.02" transform="translate(-181.96 356.82) rotate(-21.3)"/><rect class="cls-5" x="870.12" y="614.69" width="2.02" height="94.92" transform="translate(-62.14 1233.39) rotate(-68.71)"/><path class="cls-9" d="M795.64,741l26.73-115.34h15.38L800.94,741Zm138.42,0L907.33,625.65H891.94L928.76,741Z"/><polygon class="cls-5" points="832.82 641.17 837.76 625.65 822.38 625.65 819.27 639.03 832.82 641.17"/><polygon class="cls-5" points="907.33 625.65 891.94 625.65 896.9 641.17 910.43 639.06 907.33 625.65"/><path class="cls-26" d="M741,487.44l11.46-10.68a10.7,10.7,0,0,1,7.63-2.87c10.81.33,38.48,1.56,50,5.7L846,486.35l11.58,13.1-2.39,4.1s-16.63,11.16-22,10.92-32.82-11.75-32.82-11.75Z"/><path class="cls-7" d="M762.77,483.69l-14.17,2.08a53.88,53.88,0,0,0-20.71,7.55c-6.48,4-14.07,9.89-18.34,17l3.53,2.28,11.49-8.46s9.2,7.93,13,7.87c5.57-.09,15.87-10.29,15.87-10.29l14.41.36S767.91,485.37,762.77,483.69Z"/><polygon class="cls-7" points="738.67 654.62 709.17 713.16 712.17 650.83 738.67 654.62"/><path class="cls-10" d="M804.43,621.78l-37.49-4.08-2.88,50-65.89-10.37,18.9-57.41a47.29,47.29,0,0,1,36.86-31.81l88.93-15.38Z"/><path class="cls-3" d="M849.8,533.73l2.66-32.7a42.09,42.09,0,0,1-13.32-15.87l47.23-44.69,20.91,9.37s2.34,42.47-4.68,81.71Z"/><path class="cls-3" d="M762.77,483.69l2.37,23.17s50.06,0,68.79-11.64c21.69-13.47,44-42.64,44-42.64l9.2-14.29s-11.87-23-31-16L815,477.77Z"/><path class="cls-27" d="M843,491.13c11.79-9.24,22.83-21.39,29-28.68l-1.47-1.26c-6.16,7.22-17.1,19.28-28.75,28.41Q842.39,490.39,843,491.13Z"/><path class="cls-9" d="M833.49,338.57s-18.69-5.77-20.27-23c-1.7-18.55,12.19-28.22,32-22.65l28.5,13,2.26,19.7-23.74-1Z"/><path class="cls-7" d="M832,324.76s.84,25.41-2.82,44.32a1.74,1.74,0,0,0,1.59,2.07l8.55.53s5,11,10.56,17.28a9.48,9.48,0,0,0,7,3.17c3.45,0,8.49-.27,12-2.16,5.81-3.15,18.29-40.33,18.29-40.33l-1.9-13.37Z"/><path class="cls-9" d="M826.71,320.65s23.25,23.25,68.47,14C895.18,334.7,864.66,305.63,826.71,320.65Z"/><path class="cls-9" d="M842.65,440.47A54.51,54.51,0,0,1,859,395.09C882.73,372.3,882.5,337,882.5,337L845.2,293s36.25-13.32,51.92.73c16.17,14.51,15.18,47.48,12.76,60.56s-4.36,51.59,4.12,71.22c4.26,9.85,3.91,17.56,1.84,22.77a10.77,10.77,0,0,1-14.28,5.71,56.13,56.13,0,0,1-21.79-16.61c-11.43-14.41-25.42-12.64-25.42-12.64Z"/><path class="cls-27" d="M852.93,426.59a24.71,24.71,0,0,1,7.78,1c4.33,1.21,11.37,3.23,17.08,10.44a60.06,60.06,0,0,0,22.48,17.54,13.2,13.2,0,0,0,7.12,1.12c0-.73,0-1.39,0-2a10.07,10.07,0,0,1-6.33-.92,60.25,60.25,0,0,1-16.61-11.38h0a52.57,52.57,0,0,1-5.11-5.58c-9.19-11.68-20.59-12.32-25-12.15"/><path class="cls-28" d="M864.25,415.44l-1.44-1.3a38.54,38.54,0,0,1,8.23-6.64c6.5-3.84,12.56-4.24,17.54-1.17l-1,1.65C877,401.48,864.38,415.3,864.25,415.44Z"/><polygon class="cls-3" points="821.68 486.08 823.2 484.88 816.26 476.13 815.07 477.75 821.68 486.08"/><rect class="cls-3" x="608.83" y="534" width="160.31" height="207"/><path class="cls-3" d="M781.74,534H600.52a3.11,3.11,0,0,1-2.45-1.19l-8.12-10.37a3.11,3.11,0,0,1,2.45-5H789.87a3.11,3.11,0,0,1,2.45,5L784.2,532.8A3.11,3.11,0,0,1,781.74,534Z"/><polygon class="cls-3" points="625.47 439.88 663.67 517.4 755.92 517.4 755.92 510.33 669.84 510.33 632.75 436.45 625.47 439.88"/><polygon class="cls-2" points="627.92 438.71 666.67 517.4 758.92 517.4 758.92 510.33 672.84 510.33 635.2 435.28 627.92 438.71"/><path class="cls-29" d="M859.69,377.31a9.8,9.8,0,0,1-6.27,1.5l-.21-1.69C856.8,377,861,375,861,370l2.07.2C862.79,373.05,862.59,375.37,859.69,377.31Z"/><path class="cls-5" d="M914.31,521.71l-77.86,4.15a52.44,52.44,0,0,0-49.65,52.37v43.52a9.15,9.15,0,0,0,9.36,9.14l102.79-2.39a48.5,48.5,0,0,0,47.29-45.43c1.13-18,1.82-37.92.78-52.2-2-27.88,9.79-78.33,13.61-93.71a5,5,0,0,0-3.36-6h0a5,5,0,0,0-6,2.36A484.2,484.2,0,0,0,914.31,521.71Z"/><path class="cls-19" d="M738.79,613.35c9.84,2.24,20.4,4,30.36,5.35v2c-10.09-1.37-20.81-3.14-30.8-5.42-32.22-7.35-75.44-4.13-94.26,1a177,177,0,0,1-35.25,5.39v-2a174.82,174.82,0,0,0,34.72-5.32C662.57,609.18,706.25,605.93,738.79,613.35Zm-20.92,73.28c12.82,0,25.8,2.42,25.8,7s-13,7-25.8,7-25.8-2.42-25.8-7S705,686.63,717.87,686.63Zm0,2c-15.62,0-23.8,3.29-23.8,5s8.17,5,23.8,5,23.8-3.28,23.8-5S733.49,688.63,717.87,688.63ZM614,602.37c-1.78-.19-3.56-.33-5.18-.43v2c9.5.56,15.63,2.19,15.74,3.71s-6.06,3.45-15.74,4.81v2c8.28-1.11,18-3.22,17.73-7C626.45,605.86,625,603.57,614,602.37Zm155.13,85.08v-2c-2.54-.47-5.12-1-7.76-1.71-37.79-9.66-71.4-5-105.35,1.13a201,201,0,0,1-47.21,3.09v2c2.67.17,6.1.3,10.2.3a212.55,212.55,0,0,0,37.36-3.42c33.72-6.07,67.09-10.72,104.5-1.16C763.7,686.36,766.45,687,769.15,687.45ZM608.83,553c9.89.62,29.69,1.08,49.2-3,26.5-5.54,55.31-2.53,83.17.39,9.55,1,18.87,2,27.94,2.6v-2c-9-.63-18.25-1.6-27.73-2.59-28-2.93-57-6-83.79-.35-19.38,4.05-39.07,3.57-48.79,3Zm56.57,74.46c25.59-4.16,55.12-3.81,92.92,1.08q5.64.73,10.81,1.24v-2q-5.05-.51-10.55-1.22c-38-4.91-67.72-5.25-93.5-1.07a315.94,315.94,0,0,1-56.25,3.92v2A318,318,0,0,0,665.41,627.44ZM769.15,735c-18.3,1.31-37.93-.73-58.66-2.9-28-2.93-57-6-83.79-.35a154.73,154.73,0,0,1-17.86,2.59v2a156.88,156.88,0,0,0,18.27-2.64c26.5-5.54,55.31-2.53,83.17.39,16.27,1.7,31.86,3.33,46.72,3.33q6.16,0,12.15-.42ZM676.43,571.1c15.65-3.9,46.55-9.68,92.71-10v-2c-46.38.32-77.44,6.13-93.16,10-23.53,5-54.23,1.34-67.15-.6v2a277.59,277.59,0,0,0,39.23,3.07A140.37,140.37,0,0,0,676.43,571.1Zm-26.11,87.79a198.83,198.83,0,0,0,37.36,3.29c17.38,0,36.55-1.83,57.82-5.5,6.42-1.11,15-2.2,23.65-3.16v-2c-8.77,1-17.47,2.08-24,3.2-37.51,6.46-68.4,7.19-94.46,2.21-14.68-2.81-30.7-2.44-41.86-1.59v2C619.87,656.49,635.77,656.11,650.32,658.89Zm4.56-63c27.17,5.19,54.49,8,74.78,8a124.86,124.86,0,0,0,20.4-1.38c5.29-.91,12-1.81,19.08-2.64v-2c-7.17.84-14,1.75-19.42,2.68-18.75,3.23-56.71.56-94.46-6.66-16.83-3.22-35.42-2.27-46.42-1.2v2C619.68,593.69,638.18,592.71,654.88,595.9ZM763,725.6c-37-12.31-70.86-10-105.16-6.34a198.08,198.08,0,0,1-49-.51v2c2.81.41,6.77.89,11.72,1.24a212.49,212.49,0,0,0,37.51-.76c34.07-3.66,67.69-5.93,104.32,6.25,2.28.76,4.54,1.43,6.76,2v-2.07C767.13,726.9,765.09,726.29,763,725.6ZM656.4,583c33.73-6.06,67.09-10.72,104.5-1.16,2.8.72,5.56,1.31,8.25,1.8v-2c-2.54-.47-5.12-1-7.76-1.71-37.79-9.66-71.4-5-105.35,1.13a200.87,200.87,0,0,1-47.21,3.09v2c2.67.17,6.1.3,10.2.3A212.49,212.49,0,0,0,656.4,583Zm6.77,88.25c-19.11,2-37.27,3.93-54.33,3.18v2q3.89.17,7.85.17c14.85,0,30.43-1.65,46.69-3.37,27.92-3,56.79-6,83.32-.35a109.55,109.55,0,0,0,22.45,2.51v-2a106.1,106.1,0,0,1-22-2.43C720.27,665.26,691.24,668.33,663.16,671.3Zm-8.28,28.37c27,5.15,50.23,8.63,70.75,8.63a141.06,141.06,0,0,0,24.43-2c5.28-.93,12-1.84,19.08-2.67v-2c-7.17.84-14,1.76-19.43,2.71-25.78,4.53-56.4.62-94.46-6.66-16.83-3.22-35.42-2.27-46.42-1.2v2C619.68,697.45,638.18,696.47,654.88,699.67Zm21.55-54.38c18.94-4.72,49.43-6.59,92.71-5.66v-2c-43.45-.93-74.09,1-93.16,5.72-23.53,5-54.23,1.34-67.15-.6v2a277.51,277.51,0,0,0,39.23,3.08A140.38,140.38,0,0,0,676.43,645.28Z"/><rect class="cls-20" x="608.83" y="534" width="160.31" height="2.71"/><polyline class="cls-10" points="673.5 667.54 687.17 741 667.08 741"/><path class="cls-5" d="M574.78,740.94l92.29.06a6.36,6.36,0,0,0,6.28-6.44l.75-64.26a6.36,6.36,0,0,0-6.27-6.45l-93.7-.06a6.36,6.36,0,0,0-6.28,6.44l.66,64.26A6.36,6.36,0,0,0,574.78,740.94Z"/><path class="cls-4" d="M600.49,693.37a146.26,146.26,0,0,0,56.46-3.66,80,80,0,0,0,8.47-2.73l-.6-1.47a80.42,80.42,0,0,1-8.28,2.67,145.14,145.14,0,0,1-73,.33c-2.17-.55-4.37-1.17-6.54-1.83l-.46,1.52c2.19.67,4.42,1.29,6.61,1.85A146.12,146.12,0,0,0,600.49,693.37Z"/><g class="cls-30"><path class="cls-31" d="M568,674.58l0-3.8a15.43,15.43,0,0,1,0,3.8Z"/><path class="cls-31" d="M667.08,741l-92.29-.06a6.36,6.36,0,0,1-6.27-6.45l-.49-53c1.9,19.79,18.54,35.4,32.43,33,18.49-3.15,21.9,17,46.28,17,16,0,23.49-6.53,26.76-11l-.15,14.11A6.36,6.36,0,0,1,667.08,741Z"/></g><path class="cls-10" d="M600.52,669.74l3.62-12.36a3.56,3.56,0,0,1,3.4-2.55h26.87a3.56,3.56,0,0,1,3.4,2.55l3.62,12.36,4.8-1.41L642.61,656a8.59,8.59,0,0,0-8.2-6.14H607.54a8.59,8.59,0,0,0-8.2,6.14l-3.62,12.36Z"/><path class="cls-17" d="M909.47,522v.11l17.15-1-.14-2.32-11.46.7c-.24.76-.48,1.52-.71,2.29Z"/><path class="cls-17" d="M843.75,541.53l16.85-1.07-.14-2.32-15.72,1-6.67.36a39.67,39.67,0,0,0-37.56,39.62v10.53l0,0,0,13h2.32l0-15.53Z"/><polygon class="cls-27" points="813.98 477.89 820.04 487.65 821.71 486.67 815.66 476.94 815.04 477.77 813.98 477.89"/><ellipse cx="845.12" cy="352.37" rx="2.16" ry="3.85" transform="translate(-70.37 335.61) rotate(-21.58)"/><path class="cls-31" d="M850.54,343.32a24.69,24.69,0,0,0-10.86-.23l-.28-1.4c7.34-2.78,11.39.07,11.6.13Z"/><path class="cls-28" d="M873.46,338.34c-21.26,0-40.52-10.17-47.62-14.88l1.07-1.62c7.83,5.19,29.81,16.7,55.34,14.39l.17,1.93C879.38,338.44,876.27,338.34,873.46,338.34Z"/><path class="cls-8" d="M762.77,483.69l-2.14.31,1.75,18,2.14.05h.08l-1.78-18.31Z"/><path class="cls-28" d="M859.34,298.67a37.43,37.43,0,0,0-11.2-6.69c-1.85.58-2.94,1-2.94,1l.08.1a36,36,0,0,1,12.78,7.08Z"/><line class="cls-10" x1="671.98" y1="665.46" x2="686.33" y2="741"/><rect class="cls-2" x="1089.25" y="734.5" width="527.5" height="6.5" rx="3.25" ry="3.25"/><polygon class="cls-5" points="1371.41 638 1334.41 741 1342.75 741 1388.08 640.33 1371.41 638"/><polygon class="cls-17" points="1365.98 653.12 1381.36 655.26 1388.08 640.33 1371.41 638 1365.98 653.12"/><path class="cls-7" d="M1520.9,456.08V431.33l24.47-21.25s8,30.38.71,70.13Z"/><path class="cls-7" d="M1415.72,447.33l-13.48-14.13a9.07,9.07,0,0,1-2.5-6.62l.8-20.16,5.52-8.25,2.48,10.57,12.67,14.85,3.92-6.54s-3.63-6.35-3.36-12.35c.15-3.21,3.06-5.46,3.06-5.46s9.19,14.44,10.36,20.57c1.4,7.39-1,21.93-1,21.93S1427.2,455.16,1415.72,447.33Z"/><path class="cls-15" d="M1546.08,480.21l-41.85,74L1457.29,547l15.63-24S1531.25,475.09,1546.08,480.21Z"/><path class="cls-17" d="M1546.08,480.21l-41.85,74L1457.29,547l15.63-24S1531.25,475.09,1546.08,480.21Z"/><path class="cls-32" d="M1250.48,714.26a61.29,61.29,0,0,1,5.25,26.69h-16.59c-.19-1.68.14-4-.15-5.43-7.06,0-23.14,5.44-29.54,5.45L1156,741a10.53,10.53,0,0,1,1.74-7c21.34-1,68.09-11.23,81.48-23.9C1248.94,700.91,1250.48,714.26,1250.48,714.26Z"/><path id="_Path_" data-name="&lt;Path&gt;" class="cls-9" d="M1264.83,681.57c-.58,1.61-8.91,27.64-12.59,36.37-5.42,1-14.6.47-18.43-3.68a247.9,247.9,0,0,0,13.57-33.66C1247.36,680,1264.83,681.57,1264.83,681.57Z"/><path class="cls-32" d="M1222.37,629.31a61.29,61.29,0,0,1-1.73,27.15c-3.21-.84-7.08-2.09-15.17-4.22.25-1.67,1.15-3.81,1.24-5.29-6.83-1.8-23.76-.63-30-2.26l-51.7-13.6a10.53,10.53,0,0,1,3.47-6.31c20.89,4.49,68.7,6.5,84.88-2.34C1225.15,616,1222.37,629.31,1222.37,629.31Z"/><path id="_Path_2" data-name="&lt;Path&gt;" class="cls-9" d="M1252,612c-1.31,1.1-21.54,19.48-29.09,25.21-5.2-1.84-13.14-7.17-14.38-12.68,13.26-8.63,28.54-21.58,28.83-22.09S1252,612,1252,612Z"/><path class="cls-33" d="M1229,725.72c-1.66,1.18-3.73-3.27-5.31-6.61,1.1-.46,2.15-.92,3.18-1.39C1228.42,720.69,1230.24,724.85,1229,725.72Zm-10.57-4.56c-1.08.39-2.18.78-3.29,1.16,1.6,3.35,3.71,8,5.39,6.77C1221.76,728.22,1220,724.13,1218.45,721.16Zm-12,3.9c1.57,3.3,3.57,7.48,5.18,6.34,1.14-.81-.36-4.45-1.8-7.34Q1208.13,724.57,1206.42,725.06Zm-3.72-98.38c-1.11.19-2.25.37-3.43.54.68,3.63,1.55,8.46,3.45,7.75C1204.13,634.43,1203.43,629.95,1202.7,626.68Zm-9,1.18c-1.14.11-2.3.2-3.48.28.69,3.65,1.55,8.64,3.48,7.92C1195.07,635.53,1194.38,631.12,1193.67,627.85Zm-12.62.71c.68,3.59,1.55,8.14,3.4,7.45,1.3-.49.79-4.39.13-7.56Q1182.82,628.52,1181,628.57Z"/><polygon class="cls-3" points="1346.08 624.83 1313.41 619.66 1280.28 706.87 1226.56 699.33 1269.08 591.66 1334.41 564.31 1378.08 567 1346.08 624.83"/><polygon class="cls-34" points="1346.08 624.83 1313.41 619.66 1280.28 706.87 1226.56 699.33 1269.08 591.66 1334.41 564.31 1378.08 567 1346.08 624.83"/><polygon class="cls-3" points="1378.08 567 1338.77 564.57 1257.41 644.83 1215.15 605.83 1306.41 528.66 1348.08 516.33 1408.78 536.07 1378.08 567"/><polyline class="cls-34" points="1387.25 543.33 1345.62 530.52 1338.2 538.26 1332.81 532.2 1312.51 544.04 1309.75 541.14 1304.99 542.14 1307.29 529 1337.41 512.83 1347.08 513.66 1405.64 535.61"/><polygon class="cls-15" points="1431.63 514.98 1341.7 500.97 1345 523.08 1423.53 546.36 1440.25 544.08 1431.63 514.98"/><polyline class="cls-17" points="1422.9 513.62 1417.8 512.83 1408.78 538.83 1433.13 539.56"/><path class="cls-9" d="M1577.65,560.31l-172-24.7a22.77,22.77,0,0,0-22.89,11l-40.49,69.21A16.16,16.16,0,0,0,1354.08,640L1544,665.33l40-93.66A8.22,8.22,0,0,0,1577.65,560.31Z"/><path class="cls-13" d="M1574.12,589.58c1.06-7-9.27-12.42-19,.25-10.32,13.45-18.88,10.05-29.62,9.75s-9.32,14-12.46,23.61-19,2.42-23.95,11.52c-4.6,8.52,2.27,14.77,1.17,19.4a8.74,8.74,0,0,1-2.12,3.77l55.85,7.44,22.24-52C1563.24,606.27,1572.91,597.59,1574.12,589.58Z"/><rect class="cls-34" x="1217.92" y="596.76" width="49.48" height="2" transform="translate(-79.5 989.45) rotate(-42.19)"/><path class="cls-15" d="M1533.7,456.06a19,19,0,0,1,10.09,8.44c5.8,10,2.64,22.8-6.73,29.56l-34.85,25.15-41.31,24a22.87,22.87,0,0,1-33.1-12.26l-22.75-80.44,31.28-9.44,20.13,52.64,35.7-23.83S1518.58,450.41,1533.7,456.06Z"/><path class="cls-3" d="M1421.77,422.66l-14.14-47.44a3.07,3.07,0,0,0-3.59-2.12l-2.76.6a3.07,3.07,0,0,0-2.29,3.9l9.56,31.15,12.67,14.85Z"/><path class="cls-32" d="M1573,359.16c5.78-3.56,6.14-10.9,6.16-11.21l-1.7-.07c0,.07-.35,6.75-5.35,9.83Z"/><path class="cls-32" d="M1573.35,364.08c2.44-4.05,10.73-2.53,10.81-2.52l.32-1.67c-.39-.07-9.55-1.75-12.59,3.31Z"/><polygon class="cls-3" points="1346.78 556.66 1348.18 558.08 1335.14 570.98 1334.02 569.27 1346.78 556.66"/><polygon class="cls-34" points="1346.78 556.66 1348.18 558.08 1335.14 570.98 1334.02 569.27 1346.78 556.66"/><polygon class="cls-17" points="1462.88 509.34 1464.73 508.58 1458.17 492.61 1456.49 493.78 1462.88 509.34"/><polygon class="cls-4" points="1320.18 608.48 1318.34 607.71 1313.42 619.66 1315.45 619.99 1320.18 608.48"/><polygon class="cls-13" points="1423.53 598.04 1421.68 597.27 1417.47 607.51 1419.28 608.37 1423.53 598.04"/><polygon class="cls-13" points="1378.65 620.49 1379.65 618.76 1370.05 613.25 1368.96 614.93 1378.65 620.49"/><polygon class="cls-13" points="1461.06 630.77 1459.82 632.34 1468.51 639.2 1469.83 637.69 1461.06 630.77"/><polygon class="cls-13" points="1410.72 563.68 1410.32 561.72 1399.47 563.94 1399.77 565.92 1410.72 563.68"/><polygon class="cls-13" points="1459.37 581.28 1457.95 582.69 1465.75 590.55 1467.25 589.21 1459.37 581.28"/><polygon class="cls-13" points="1515.97 574.68 1516.33 576.65 1527.22 574.66 1526.96 572.68 1515.97 574.68"/><path class="cls-9" d="M1496.25,552.33l85-123a7.84,7.84,0,0,1,14.28,4.05c1.55,28.73.05,82.23-24.4,136.57Z"/><path class="cls-6" d="M1493.75,691.33s-3-8.5,3.13-13.37,11.38-9.25,11.63-14-7.63-9.67-4.62-18.87c3.21-9.83,20.13-5.62,21.5-15.62s-2.62-21.87,8-23.5,17.38-.29,25.13-15.37c7.3-14.21,18.17-8.91,18.38-1.87.26,8.87-6.21,16.43.54,23.29,8,8.08,4.65,15.19-2.5,22.41-8.58,8.67,6,17.17-4.08,25.58-10.75,9,7,16,4.54,30C1575.37,690,1514.91,704.83,1493.75,691.33Z"/><path class="cls-34" d="M1547.72,638.9A163.73,163.73,0,0,1,1564,606.54l-1.68-1.09a161.26,161.26,0,0,0-10.13,18c-2.52-1.48-10-6.71-13.18-18.19l-2,.25c3.41,12.66,11.61,18.22,14.33,19.76a176,176,0,0,0-10.46,28.64,37.29,37.29,0,0,1-21.92-17.71c-.62.23-1.26.45-1.91.65a39.45,39.45,0,0,0,13.75,14.7,37.75,37.75,0,0,0,9.57,4.3q-.85,3.29-1.52,6.36c-5.42-1.24-24.48-6.52-32.53-20.78a8.6,8.6,0,0,0-1.38,1.6c3.79,6.36,10.05,11.77,18.48,15.87a70.7,70.7,0,0,0,15,5.27,143.52,143.52,0,0,0-3.3,26.23h2c0-.12,0-3.83.71-10a52.13,52.13,0,0,0,8.72.71c6.92,0,16.34-1.34,23.9-7.29-.36-.59-.71-1.16-1-1.73-11.42,9.12-28,6.88-31.36,6.32a176.82,176.82,0,0,1,9-37.55,51.21,51.21,0,0,0,13.51,1.91,33.35,33.35,0,0,0,11.54-1.9,8.54,8.54,0,0,1,.31-2.28C1562.85,642.53,1551.18,639.86,1547.72,638.9Z"/><path class="cls-3" d="M1575.31,690h-82.26A29,29,0,0,0,1479.5,715V716a29,29,0,0,0,13.61,25h82.16a29,29,0,0,0,13.61-25V715A29,29,0,0,0,1575.31,690Z"/><path class="cls-34" d="M1576.86,739.95q.76-.54,1.48-1.13c-5.2-3-23.93-12.69-42.46-10-21.78,3.17-37.68,2.26-45.88-8.5-11-14.5,3-30.1,3.05-30.3A29,29,0,0,0,1479.5,715V716a30.55,30.55,0,0,0,1.52,9.57,29.64,29.64,0,0,0,1.39,3.47q.4.84.85,1.64a28.64,28.64,0,0,0,3.1,4.5q.58.69,1.2,1.34a27.28,27.28,0,0,0,2.64,2.42,26.41,26.41,0,0,0,2.92,2h82.16q.81-.48,1.57-1Z"/><path class="cls-13" d="M1575.33,560c.25-.63.49-1.25.73-1.87l-76.23-11-1.24,1.8Z"/><path class="cls-35" d="M1546.7,414.91c.18-1.22-1.8-.73-1.75-1.71l-24.05,18.13v19.25S1542.34,445.19,1546.7,414.91Z"/><path class="cls-32" d="M1538.12,335s-4.71-12.79-20.62-16.75c-20.91-5.2-33,17.71-12.62,39.38C1512.07,365.24,1538.12,335,1538.12,335Z"/><path class="cls-7" d="M1487.41,389.75s-7.25-3.25-6.92-7,11.08-4.25,11.08-4.25,6.86-19.43,18.42-29.76,31.25,16.59,31.25,16.59l1.08,30.33-24.67,8.67L1491,396.25Z"/><ellipse cx="1506.29" cy="372.56" rx="4.36" ry="2.45" transform="translate(911.03 1805.51) rotate(-81.33)"/><path d="M1515.14,364.9a25.49,25.49,0,0,0-10.69-3.37l.13-1.47c8.08-.64,11.26,3.36,11.46,3.49Z"/><path class="cls-32" d="M1541.87,416.08s-9.78,21.45-28.86,21.87c-20.16.44-40.26-8.37-39.51-30.12.83-24.42,19.83-19.46,31.88-14.92a40.46,40.46,0,0,0,21.17,1.47,8.74,8.74,0,0,0,7-8.33c.13-5.55.86-13.74,3.6-20.47,0,0-26.5-10.87-31.37-23,0,0,29.32-8,32.38-7.62,51,6.88,44.79,42.38,32.13,66.75-5.66,10.89-14,17.79-16.9,30.89a2.86,2.86,0,0,1-5.06,1.11A31.84,31.84,0,0,1,1541.87,416.08Z"/><path d="M1498.93,414.1a11.14,11.14,0,0,1-6.95-2.31l.81-1.75c3.34,1.55,8.54,2,11.78-2.22l1.88,1.43C1504.47,411.84,1502.89,414,1498.93,414.1Z"/><path class="cls-36" d="M1538.12,335l1.26,8.12,2.26-.35-1.16-7.43-2.28-.33Z"/><path class="cls-36" d="M1549.65,415l-1-2.07-6.79,3.22c.05.39.1,1,.13,1.57,0,.3.07.59.11.89Z"/><polygon class="cls-36" points="1508.3 350.32 1510 348.74 1505.61 342.8 1503.78 344.05 1508.3 350.32"/><polygon class="cls-13" points="1530.49 538.81 1531.95 540.18 1539.5 532.09 1538.11 530.65 1530.49 538.81"/><polygon class="cls-13" points="1568.19 497.89 1566.77 499.3 1574.57 507.16 1576.06 505.82 1568.19 497.89"/><polyline class="cls-13" points="1238.15 704.98 1254.57 711.86 1257.46 703.67 1239.77 701.18"/><polyline class="cls-13" points="1223.63 613.65 1220.18 616.25 1230.04 631.28 1236.6 625.63"/><polyline class="cls-10" points="1324.52 578.64 1237.52 685.82 1226.56 699.33 1250.58 638.52 1257.41 644.83"/><polygon class="cls-10" points="1575.61 687.66 1493.05 687.66 1493.4 690.03 1575.37 690.03 1575.61 687.66"/><path class="cls-7" d="M1345.49,520.71s-1.84-13.73-2.29-15.58a.27.27,0,0,0-.31-.2c-2.66.44-23.6,5-26.39,6.3s-10.72,10.24-10.72,10.24-6.48,13-2.12,13.83c0,0-.56,2.27-1,4a2.25,2.25,0,0,0,1.57,2.71h0a2.25,2.25,0,0,0,2.77-1.51c.8-2.65,4.56-12,4.56-12l-3.26,12.83a2.66,2.66,0,0,0,5.13,1.38l3.63-10.56,15-8c-2.81,19,6.14,14.08,6.14,14.08S1335.84,526.31,1345.49,520.71Z"/><g class="cls-37"><path class="cls-15" d="M1311,530.8l.57-2.17a49.28,49.28,0,0,1,10.9-9.33l.41.91C1317.23,523.53,1311,530.8,1311,530.8Z"/></g><path class="cls-15" d="M1303.65,535.4l3.31-9.3c.39-.6,4.23-6.48,7.63-8.77l-.61-.9c-3.76,2.53-7.81,8.87-8,9.14l-3.29,9.21a1.6,1.6,0,0,0,.95.52l0,.1Z"/><g class="cls-38"><path class="cls-4" d="M701.4,599.79a18.53,18.53,0,0,1-11.92-4.19l3.61-6.07s4.23,3.57,7.76,3.57c1.58,0,4.57-.15,4.57-3.11,0-2.31-3.38-3.34-7.15-5.23s-6-4.84-6-8.15c0-5.92,5.23-9.69,10.34-9.69a17.62,17.62,0,0,1,5.5.9A11.78,11.78,0,0,0,698,562.11H680.38a11.79,11.79,0,0,0-11.76,11.76v17.64a11.79,11.79,0,0,0,11.76,11.76h9.68l19.39,13.06.14-18.74A14.24,14.24,0,0,1,701.4,599.79Z"/><path class="cls-4" d="M699.33,576.35c0,1.77,3,3,6.61,4.57a16.8,16.8,0,0,1,3.77,2.2l0-7.31-.21-.12a13.08,13.08,0,0,0-6.42-2.19C700.63,573.5,699.33,574.62,699.33,576.35Z"/></g><path class="cls-39" d="M767.14,780a.93.93,0,0,1-.25.29.54.54,0,0,1-.32.09.9.9,0,0,1-.51-.21q-.29-.22-.73-.48a5.88,5.88,0,0,0-1.05-.47,4.52,4.52,0,0,0-1.49-.22,4.35,4.35,0,0,0-1.45.22,3.12,3.12,0,0,0-1.05.6,2.47,2.47,0,0,0-.64.89,2.83,2.83,0,0,0-.22,1.11,2,2,0,0,0,.37,1.26,3.21,3.21,0,0,0,1,.86,7.56,7.56,0,0,0,1.39.61l1.6.54q.82.28,1.6.63a5.62,5.62,0,0,1,1.39.88,4,4,0,0,1,1,1.31,4.34,4.34,0,0,1,.37,1.9,6.13,6.13,0,0,1-.41,2.24,5.15,5.15,0,0,1-1.18,1.82,5.54,5.54,0,0,1-1.91,1.22,7.05,7.05,0,0,1-2.58.44,7.86,7.86,0,0,1-3.22-.64,7.55,7.55,0,0,1-2.47-1.73l.71-1.17a.93.93,0,0,1,.25-.23.58.58,0,0,1,.32-.09.72.72,0,0,1,.37.13c.14.09.3.2.48.34l.61.44a5,5,0,0,0,.78.44,5.31,5.31,0,0,0,1,.34,5.46,5.46,0,0,0,1.25.13,4.66,4.66,0,0,0,1.56-.24,3.3,3.3,0,0,0,1.16-.68,2.93,2.93,0,0,0,.73-1,3.49,3.49,0,0,0,.25-1.36,2.28,2.28,0,0,0-.37-1.35,3.1,3.1,0,0,0-1-.88,6.84,6.84,0,0,0-1.39-.6l-1.6-.51a16.7,16.7,0,0,1-1.6-.6,5.14,5.14,0,0,1-1.39-.89,4.07,4.07,0,0,1-1-1.36,5.22,5.22,0,0,1,0-3.88,4.76,4.76,0,0,1,1.09-1.6,5.33,5.33,0,0,1,1.76-1.11,6.42,6.42,0,0,1,2.4-.42,7.65,7.65,0,0,1,2.77.48,6.54,6.54,0,0,1,2.2,1.39Z"/><path class="cls-39" d="M773.82,778.47a1.44,1.44,0,0,1-.13.62,1.8,1.8,0,0,1-.35.51,1.63,1.63,0,0,1-.52.35,1.58,1.58,0,0,1-.63.13,1.49,1.49,0,0,1-.61-.13,1.59,1.59,0,0,1-.5-.35,1.75,1.75,0,0,1-.34-.51,1.5,1.5,0,0,1-.13-.62,1.59,1.59,0,0,1,.13-.63,1.7,1.7,0,0,1,.34-.52,1.61,1.61,0,0,1,.5-.35,1.5,1.5,0,0,1,.61-.13,1.59,1.59,0,0,1,.63.13,1.65,1.65,0,0,1,.52.35,1.74,1.74,0,0,1,.35.52A1.52,1.52,0,0,1,773.82,778.47Zm-.48,4v12.83h-2.26V782.5Z"/><path class="cls-39" d="M777,795.34V782.5h1.36a.56.56,0,0,1,.6.47l.17,1.32a6.53,6.53,0,0,1,1.6-1.43,3.78,3.78,0,0,1,2.05-.56,3,3,0,0,1,2.1.72,4.07,4.07,0,0,1,1.16,2,4.22,4.22,0,0,1,.72-1.2,4.08,4.08,0,0,1,1-.84,4.15,4.15,0,0,1,1.16-.48,5.16,5.16,0,0,1,1.25-.15,4.76,4.76,0,0,1,1.81.32,3.58,3.58,0,0,1,1.34.94,4.21,4.21,0,0,1,.84,1.53,6.77,6.77,0,0,1,.29,2.07v8.17h-2.27v-8.17a3.46,3.46,0,0,0-.66-2.29,2.35,2.35,0,0,0-1.9-.78,2.87,2.87,0,0,0-1.06.2,2.54,2.54,0,0,0-.88.58,2.7,2.7,0,0,0-.6,1,3.72,3.72,0,0,0-.22,1.34v8.17h-2.27v-8.17a3.59,3.59,0,0,0-.62-2.31,2.2,2.2,0,0,0-1.81-.76,2.83,2.83,0,0,0-1.55.45,5.14,5.14,0,0,0-1.31,1.22v9.57Z"/><path class="cls-39" d="M800,784.49a6.65,6.65,0,0,1,1.88-1.61,4.82,4.82,0,0,1,2.43-.61,4.66,4.66,0,0,1,2,.42,4.14,4.14,0,0,1,1.53,1.25,6,6,0,0,1,1,2.06,10.55,10.55,0,0,1,.34,2.83,8.86,8.86,0,0,1-.38,2.64,6.37,6.37,0,0,1-1.1,2.12,5.07,5.07,0,0,1-4.07,1.92,4.69,4.69,0,0,1-2-.4,4.74,4.74,0,0,1-1.49-1.11v5.68h-2.27V782.5h1.36a.56.56,0,0,1,.6.47Zm.11,7.75a3.65,3.65,0,0,0,1.36,1.18,3.85,3.85,0,0,0,1.65.34,3.25,3.25,0,0,0,2.76-1.28,6,6,0,0,0,1-3.65,9.12,9.12,0,0,0-.22-2.15,4.21,4.21,0,0,0-.64-1.48,2.49,2.49,0,0,0-1-.84,3.41,3.41,0,0,0-1.38-.27,3.64,3.64,0,0,0-1.93.51,5.58,5.58,0,0,0-1.53,1.43Z"/><path class="cls-39" d="M814.41,776.67v18.66h-2.25V776.67Z"/><path class="cls-39" d="M820.2,785.07a5.78,5.78,0,0,1,1.5-2.06,3.26,3.26,0,0,1,2.17-.74,3.39,3.39,0,0,1,.78.09,2.1,2.1,0,0,1,.67.28l-.17,1.68a.36.36,0,0,1-.38.32,2.67,2.67,0,0,1-.52-.08,3.56,3.56,0,0,0-.77-.08,3.08,3.08,0,0,0-1.08.18,2.54,2.54,0,0,0-.85.53,3.72,3.72,0,0,0-.67.86,7.36,7.36,0,0,0-.54,1.17v8.11h-2.27V782.5h1.29a.71.71,0,0,1,.51.14.85.85,0,0,1,.19.48Z"/><path class="cls-39" d="M840.71,784.62a.5.5,0,0,1-.47.28.89.89,0,0,1-.43-.14l-.59-.31a5.67,5.67,0,0,0-.83-.32,4,4,0,0,0-1.14-.15,3.38,3.38,0,0,0-1,.15,2.48,2.48,0,0,0-.78.4,1.78,1.78,0,0,0-.49.59,1.58,1.58,0,0,0-.17.73,1.21,1.21,0,0,0,.29.82,2.48,2.48,0,0,0,.75.57,6.64,6.64,0,0,0,1.06.42l1.22.39q.63.21,1.22.46a4.41,4.41,0,0,1,1.06.63,2.88,2.88,0,0,1,.75.93,2.84,2.84,0,0,1,.29,1.32,4.19,4.19,0,0,1-.32,1.64,3.6,3.6,0,0,1-.94,1.31,4.52,4.52,0,0,1-1.52.87,6.25,6.25,0,0,1-2.08.32,6.49,6.49,0,0,1-2.43-.44A6.15,6.15,0,0,1,832.3,794l.53-.86a.76.76,0,0,1,.24-.25.65.65,0,0,1,.35-.09.85.85,0,0,1,.48.18q.25.18.61.39a4.68,4.68,0,0,0,.88.39,4,4,0,0,0,1.29.18,3.52,3.52,0,0,0,1.15-.17,2.43,2.43,0,0,0,.82-.46,1.83,1.83,0,0,0,.49-.67,2.09,2.09,0,0,0,.16-.81,1.35,1.35,0,0,0-.29-.88,2.41,2.41,0,0,0-.75-.6,6.09,6.09,0,0,0-1.07-.43l-1.23-.39q-.63-.2-1.23-.46a4.32,4.32,0,0,1-1.07-.65,3,3,0,0,1-.75-1,3.14,3.14,0,0,1-.28-1.4,3.41,3.41,0,0,1,.3-1.41,3.46,3.46,0,0,1,.89-1.19,4.36,4.36,0,0,1,1.43-.82,5.72,5.72,0,0,1,1.94-.3,6.14,6.14,0,0,1,2.27.4,5.4,5.4,0,0,1,1.74,1.1Z"/><path class="cls-39" d="M846.36,784.49a6.64,6.64,0,0,1,1.88-1.61,4.81,4.81,0,0,1,2.43-.61,4.66,4.66,0,0,1,2,.42,4.13,4.13,0,0,1,1.53,1.25,6,6,0,0,1,1,2.06,10.54,10.54,0,0,1,.34,2.83,8.84,8.84,0,0,1-.38,2.64,6.36,6.36,0,0,1-1.1,2.12,5.07,5.07,0,0,1-4.07,1.92,4.69,4.69,0,0,1-2-.4,4.75,4.75,0,0,1-1.49-1.11v5.68h-2.27V782.5h1.36a.56.56,0,0,1,.6.47Zm.11,7.75a3.64,3.64,0,0,0,1.36,1.18,3.84,3.84,0,0,0,1.65.34,3.25,3.25,0,0,0,2.76-1.28,6,6,0,0,0,1-3.65,9.07,9.07,0,0,0-.22-2.15,4.19,4.19,0,0,0-.64-1.48,2.48,2.48,0,0,0-1-.84,3.4,3.4,0,0,0-1.38-.27,3.64,3.64,0,0,0-1.93.51,5.57,5.57,0,0,0-1.53,1.43Z"/><path class="cls-39" d="M868.82,793.54a4.28,4.28,0,0,1-1,.88,6.23,6.23,0,0,1-1.25.62,8,8,0,0,1-1.37.36,8.41,8.41,0,0,1-1.41.12,6.52,6.52,0,0,1-2.45-.45,5.38,5.38,0,0,1-1.94-1.32,6,6,0,0,1-1.27-2.15,8.72,8.72,0,0,1-.46-2.94,7.48,7.48,0,0,1,.41-2.51,5.93,5.93,0,0,1,1.18-2,5.46,5.46,0,0,1,1.89-1.34,6.2,6.2,0,0,1,2.51-.49,5.77,5.77,0,0,1,2.13.39,4.83,4.83,0,0,1,1.7,1.12,5.11,5.11,0,0,1,1.12,1.8A6.85,6.85,0,0,1,869,788a1.47,1.47,0,0,1-.11.71.47.47,0,0,1-.43.18H859.9a7.51,7.51,0,0,0,.34,2.12,4.23,4.23,0,0,0,.83,1.5,3.34,3.34,0,0,0,1.27.9,4.34,4.34,0,0,0,1.65.3,4.84,4.84,0,0,0,1.46-.2,7.06,7.06,0,0,0,1.06-.42,8.08,8.08,0,0,0,.74-.42,1,1,0,0,1,.51-.2.5.5,0,0,1,.43.21Zm-1.82-6a4.45,4.45,0,0,0-.22-1.44,3.25,3.25,0,0,0-.65-1.13,2.89,2.89,0,0,0-1-.73,3.91,3.91,0,0,0-3.95.68,4.43,4.43,0,0,0-1.17,2.62Z"/><path class="cls-39" d="M880.72,784.78a1,1,0,0,1-.2.22.45.45,0,0,1-.28.08.75.75,0,0,1-.42-.16c-.15-.11-.34-.22-.56-.35a4.47,4.47,0,0,0-.82-.35,4.45,4.45,0,0,0-2.87.18,3.23,3.23,0,0,0-1.21,1,4.39,4.39,0,0,0-.73,1.53,7.59,7.59,0,0,0-.25,2,7.39,7.39,0,0,0,.27,2.07,4.42,4.42,0,0,0,.75,1.52,3.23,3.23,0,0,0,1.18.94,3.61,3.61,0,0,0,1.55.32,3.74,3.74,0,0,0,2.24-.63q.35-.24.58-.44a.73.73,0,0,1,.46-.2.5.5,0,0,1,.43.21l.63.82a4.48,4.48,0,0,1-1,.89,5.87,5.87,0,0,1-1.15.61,6.24,6.24,0,0,1-1.29.36,8.14,8.14,0,0,1-1.37.11,5.62,5.62,0,0,1-2.24-.44,5.11,5.11,0,0,1-1.79-1.29,6,6,0,0,1-1.19-2.07,9.16,9.16,0,0,1,0-5.45,6,6,0,0,1,1.17-2.1,5.31,5.31,0,0,1,1.89-1.37,6.34,6.34,0,0,1,2.58-.49,6.1,6.1,0,0,1,2.39.44,5.72,5.72,0,0,1,1.83,1.24Z"/><path class="cls-39" d="M886.75,778.47a1.44,1.44,0,0,1-.13.62,1.8,1.8,0,0,1-.35.51,1.63,1.63,0,0,1-.52.35,1.58,1.58,0,0,1-.63.13,1.49,1.49,0,0,1-.62-.13,1.59,1.59,0,0,1-.5-.35,1.74,1.74,0,0,1-.34-.51,1.49,1.49,0,0,1-.13-.62,1.58,1.58,0,0,1,.13-.63,1.69,1.69,0,0,1,.34-.52,1.61,1.61,0,0,1,.5-.35,1.51,1.51,0,0,1,.62-.13,1.59,1.59,0,0,1,.63.13,1.65,1.65,0,0,1,.52.35,1.74,1.74,0,0,1,.35.52A1.52,1.52,0,0,1,886.75,778.47Zm-.48,4v12.83H884V782.5Z"/><path class="cls-39" d="M889.64,784.31a7.33,7.33,0,0,1,2.29-1.53,7.08,7.08,0,0,1,2.72-.51,4.86,4.86,0,0,1,1.91.36,3.91,3.91,0,0,1,1.41,1,4.17,4.17,0,0,1,.86,1.53,6.39,6.39,0,0,1,.29,2v8.21h-1a1,1,0,0,1-.51-.11.74.74,0,0,1-.28-.42l-.25-1.22a12.41,12.41,0,0,1-1,.83,5.63,5.63,0,0,1-1,.61,5.46,5.46,0,0,1-1.13.38,6.18,6.18,0,0,1-1.34.13,4.64,4.64,0,0,1-1.41-.21,3.23,3.23,0,0,1-1.15-.63,3,3,0,0,1-.77-1.06,3.71,3.71,0,0,1-.29-1.51,2.83,2.83,0,0,1,.42-1.46,3.66,3.66,0,0,1,1.36-1.25,8.92,8.92,0,0,1,2.44-.89,18.67,18.67,0,0,1,3.7-.4v-1a3.43,3.43,0,0,0-.65-2.26,2.33,2.33,0,0,0-1.89-.77,4.05,4.05,0,0,0-1.4.21,5.16,5.16,0,0,0-1,.47l-.71.47a1,1,0,0,1-.59.21.64.64,0,0,1-.39-.12,1.1,1.1,0,0,1-.28-.3Zm7.29,5.25a18.86,18.86,0,0,0-2.65.25,7.52,7.52,0,0,0-1.79.51,2.46,2.46,0,0,0-1,.75,1.61,1.61,0,0,0-.31,1,2.13,2.13,0,0,0,.16.87,1.62,1.62,0,0,0,.45.6,1.82,1.82,0,0,0,.67.34,3.09,3.09,0,0,0,.83.11,4.61,4.61,0,0,0,1.09-.12,4.1,4.1,0,0,0,.93-.35,5.33,5.33,0,0,0,.84-.54,7.39,7.39,0,0,0,.78-.72Z"/><path class="cls-39" d="M904.89,776.67v18.66h-2.25V776.67Z"/><path class="cls-39" d="M911.4,778.47a1.44,1.44,0,0,1-.13.62,1.8,1.8,0,0,1-.35.51,1.63,1.63,0,0,1-.52.35,1.58,1.58,0,0,1-.63.13,1.49,1.49,0,0,1-.62-.13,1.59,1.59,0,0,1-.5-.35,1.74,1.74,0,0,1-.34-.51,1.49,1.49,0,0,1-.13-.62,1.58,1.58,0,0,1,.13-.63,1.69,1.69,0,0,1,.34-.52,1.61,1.61,0,0,1,.5-.35,1.51,1.51,0,0,1,.62-.13,1.59,1.59,0,0,1,.63.13,1.65,1.65,0,0,1,.52.35,1.74,1.74,0,0,1,.35.52A1.52,1.52,0,0,1,911.4,778.47Zm-.48,4v12.83h-2.25V782.5Z"/><path class="cls-39" d="M922.09,784.62a.5.5,0,0,1-.47.28.89.89,0,0,1-.43-.14l-.59-.31a5.67,5.67,0,0,0-.83-.32,4,4,0,0,0-1.14-.15,3.38,3.38,0,0,0-1,.15,2.48,2.48,0,0,0-.78.4,1.78,1.78,0,0,0-.49.59,1.58,1.58,0,0,0-.17.73,1.21,1.21,0,0,0,.29.82,2.48,2.48,0,0,0,.75.57,6.64,6.64,0,0,0,1.06.42l1.22.39q.63.21,1.22.46a4.41,4.41,0,0,1,1.06.63,2.88,2.88,0,0,1,.75.93,2.84,2.84,0,0,1,.29,1.32,4.19,4.19,0,0,1-.32,1.64,3.6,3.6,0,0,1-.94,1.31,4.52,4.52,0,0,1-1.52.87,6.25,6.25,0,0,1-2.08.32,6.49,6.49,0,0,1-2.43-.44,6.15,6.15,0,0,1-1.85-1.12l.53-.86a.76.76,0,0,1,.24-.25.65.65,0,0,1,.35-.09.85.85,0,0,1,.48.18q.25.18.61.39a4.68,4.68,0,0,0,.88.39,4,4,0,0,0,1.29.18,3.52,3.52,0,0,0,1.15-.17,2.43,2.43,0,0,0,.82-.46,1.83,1.83,0,0,0,.49-.67,2.09,2.09,0,0,0,.16-.81,1.35,1.35,0,0,0-.29-.88,2.41,2.41,0,0,0-.75-.6,6.09,6.09,0,0,0-1.07-.43l-1.23-.39q-.63-.2-1.23-.46a4.32,4.32,0,0,1-1.07-.65,3,3,0,0,1-.75-1A3.14,3.14,0,0,1,914,786a3.41,3.41,0,0,1,.3-1.41,3.46,3.46,0,0,1,.89-1.19,4.36,4.36,0,0,1,1.43-.82,5.72,5.72,0,0,1,1.94-.3,6.14,6.14,0,0,1,2.27.4,5.4,5.4,0,0,1,1.74,1.1Z"/><path class="cls-39" d="M929.53,795.54a3.09,3.09,0,0,1-2.34-.85,3.39,3.39,0,0,1-.82-2.45v-7.85h-1.55a.5.5,0,0,1-.34-.12.47.47,0,0,1-.14-.37V783l2.1-.27.52-4a.55.55,0,0,1,.17-.31.5.5,0,0,1,.35-.12h1.14v4.42h3.71v1.63h-3.71v7.7a1.64,1.64,0,0,0,.39,1.2,1.37,1.37,0,0,0,1,.39,1.78,1.78,0,0,0,.61-.09,2.66,2.66,0,0,0,.45-.21l.32-.21a.42.42,0,0,1,.23-.09.39.39,0,0,1,.32.21l.66,1.08a4.19,4.19,0,0,1-1.41.86A4.77,4.77,0,0,1,929.53,795.54Z"/><path class="cls-39" d="M191.67,787.6v7.23h-2.46V787.6l-6.65-10.92h2.15a.79.79,0,0,1,.52.16,1.42,1.42,0,0,1,.33.41l4.16,7.06.42.83a7.34,7.34,0,0,1,.33.78q.14-.39.32-.78l.39-.83,4.14-7.06a1.38,1.38,0,0,1,.32-.39.76.76,0,0,1,.52-.18h2.17Z"/><path class="cls-39" d="M202.77,781.8a6.54,6.54,0,0,1,2.53.47,5.42,5.42,0,0,1,1.93,1.33,5.84,5.84,0,0,1,1.22,2.08,9,9,0,0,1,0,5.47,5.85,5.85,0,0,1-1.22,2.08,5.35,5.35,0,0,1-1.93,1.32,6.62,6.62,0,0,1-2.53.46,6.7,6.7,0,0,1-2.55-.46,5.34,5.34,0,0,1-1.93-1.32,5.84,5.84,0,0,1-1.22-2.08,9,9,0,0,1,0-5.47,5.83,5.83,0,0,1,1.22-2.08,5.4,5.4,0,0,1,1.93-1.33A6.62,6.62,0,0,1,202.77,781.8Zm0,11.45A3.29,3.29,0,0,0,205.6,792a7.24,7.24,0,0,0,0-7.13,3.29,3.29,0,0,0-2.84-1.28,4,4,0,0,0-1.68.33,3.12,3.12,0,0,0-1.19,1,4.22,4.22,0,0,0-.71,1.53,8.19,8.19,0,0,0-.23,2,5.86,5.86,0,0,0,.94,3.55A3.34,3.34,0,0,0,202.77,793.25Z"/><path class="cls-39" d="M222.28,782v12.83h-1.34a.58.58,0,0,1-.61-.47l-.18-1.38a7,7,0,0,1-1.87,1.49,4.91,4.91,0,0,1-2.38.56,4.63,4.63,0,0,1-1.86-.35,3.68,3.68,0,0,1-1.35-1,4.17,4.17,0,0,1-.82-1.53,6.84,6.84,0,0,1-.27-2V782h2.26v8.18a3.43,3.43,0,0,0,.67,2.25,2.5,2.5,0,0,0,2,.8,3.83,3.83,0,0,0,1.87-.47,5.93,5.93,0,0,0,1.6-1.31V782Z"/><path class="cls-39" d="M228,784.57a5.78,5.78,0,0,1,1.49-2.06,3.27,3.27,0,0,1,2.17-.74,3.39,3.39,0,0,1,.78.09,2.1,2.1,0,0,1,.67.28l-.16,1.68a.36.36,0,0,1-.38.32,2.67,2.67,0,0,1-.52-.08,3.57,3.57,0,0,0-.77-.08,3.09,3.09,0,0,0-1.08.18,2.55,2.55,0,0,0-.85.53,3.72,3.72,0,0,0-.67.86,7.31,7.31,0,0,0-.54,1.17v8.11h-2.27V782h1.29a.71.71,0,0,1,.51.14.85.85,0,0,1,.19.48Z"/><path class="cls-39" d="M250,784.28a1,1,0,0,1-.2.22.45.45,0,0,1-.28.08.75.75,0,0,1-.42-.16c-.15-.11-.34-.22-.56-.35a4.47,4.47,0,0,0-.82-.35,4.45,4.45,0,0,0-2.87.18,3.23,3.23,0,0,0-1.21,1,4.39,4.39,0,0,0-.73,1.53,7.59,7.59,0,0,0-.25,2,7.39,7.39,0,0,0,.27,2.07,4.42,4.42,0,0,0,.75,1.52,3.23,3.23,0,0,0,1.18.94,3.61,3.61,0,0,0,1.55.32,3.74,3.74,0,0,0,2.24-.63q.35-.24.58-.44a.73.73,0,0,1,.46-.2.5.5,0,0,1,.43.21l.63.82a4.48,4.48,0,0,1-1,.89,5.87,5.87,0,0,1-1.15.61,6.24,6.24,0,0,1-1.29.36A8.14,8.14,0,0,1,246,795a5.62,5.62,0,0,1-2.24-.44,5.11,5.11,0,0,1-1.79-1.29,6,6,0,0,1-1.19-2.07,9.16,9.16,0,0,1,0-5.45,6,6,0,0,1,1.17-2.1,5.31,5.31,0,0,1,1.89-1.37,6.34,6.34,0,0,1,2.58-.49,6.1,6.1,0,0,1,2.39.44,5.72,5.72,0,0,1,1.83,1.24Z"/><path class="cls-39" d="M263.68,782v12.83h-1.34a.58.58,0,0,1-.61-.47l-.18-1.38a7.05,7.05,0,0,1-1.87,1.49,4.92,4.92,0,0,1-2.38.56,4.63,4.63,0,0,1-1.86-.35,3.68,3.68,0,0,1-1.35-1,4.16,4.16,0,0,1-.82-1.53,6.84,6.84,0,0,1-.27-2V782h2.25v8.18a3.43,3.43,0,0,0,.67,2.25,2.5,2.5,0,0,0,2,.8,3.84,3.84,0,0,0,1.87-.47,5.94,5.94,0,0,0,1.6-1.31V782Z"/><path class="cls-39" d="M274.73,784.12a.5.5,0,0,1-.47.28.89.89,0,0,1-.43-.14l-.59-.31a5.67,5.67,0,0,0-.83-.32,4,4,0,0,0-1.14-.15,3.38,3.38,0,0,0-1,.15,2.48,2.48,0,0,0-.78.4,1.78,1.78,0,0,0-.49.59,1.58,1.58,0,0,0-.17.73,1.21,1.21,0,0,0,.29.82,2.48,2.48,0,0,0,.75.57,6.64,6.64,0,0,0,1.06.42l1.22.39q.63.21,1.22.46a4.41,4.41,0,0,1,1.06.63,2.88,2.88,0,0,1,.75.93,2.84,2.84,0,0,1,.29,1.32,4.19,4.19,0,0,1-.32,1.64,3.6,3.6,0,0,1-.94,1.31,4.52,4.52,0,0,1-1.52.87,6.25,6.25,0,0,1-2.08.32,6.49,6.49,0,0,1-2.43-.44,6.15,6.15,0,0,1-1.85-1.12l.53-.86a.76.76,0,0,1,.24-.25.65.65,0,0,1,.35-.09.85.85,0,0,1,.48.18q.25.18.61.39a4.68,4.68,0,0,0,.88.39,4,4,0,0,0,1.29.18,3.52,3.52,0,0,0,1.15-.17,2.43,2.43,0,0,0,.82-.46,1.83,1.83,0,0,0,.49-.67,2.09,2.09,0,0,0,.16-.81,1.35,1.35,0,0,0-.29-.88,2.41,2.41,0,0,0-.75-.6,6.09,6.09,0,0,0-1.07-.43L270,789q-.63-.2-1.23-.46a4.32,4.32,0,0,1-1.07-.65,3,3,0,0,1-.75-1,3.14,3.14,0,0,1-.28-1.4,3.41,3.41,0,0,1,.3-1.41,3.46,3.46,0,0,1,.89-1.19,4.36,4.36,0,0,1,1.43-.82,5.72,5.72,0,0,1,1.94-.3,6.14,6.14,0,0,1,2.27.4,5.4,5.4,0,0,1,1.74,1.1Z"/><path class="cls-39" d="M282.16,795a3.09,3.09,0,0,1-2.34-.85,3.39,3.39,0,0,1-.82-2.45v-7.85h-1.55a.5.5,0,0,1-.34-.12.47.47,0,0,1-.14-.37v-.9l2.1-.27.52-4a.55.55,0,0,1,.17-.31.5.5,0,0,1,.35-.12h1.14v4.42H285v1.63h-3.71v7.7a1.64,1.64,0,0,0,.39,1.2,1.37,1.37,0,0,0,1,.39,1.78,1.78,0,0,0,.61-.09,2.66,2.66,0,0,0,.45-.21l.32-.21a.42.42,0,0,1,.23-.09.39.39,0,0,1,.32.21l.66,1.08a4.19,4.19,0,0,1-1.41.86A4.77,4.77,0,0,1,282.16,795Z"/><path class="cls-39" d="M292.65,781.8a6.55,6.55,0,0,1,2.53.47,5.43,5.43,0,0,1,1.93,1.33,5.85,5.85,0,0,1,1.22,2.08,9,9,0,0,1,0,5.47,5.86,5.86,0,0,1-1.22,2.08,5.36,5.36,0,0,1-1.93,1.32,6.62,6.62,0,0,1-2.53.46,6.7,6.7,0,0,1-2.55-.46,5.35,5.35,0,0,1-1.93-1.32,5.85,5.85,0,0,1-1.22-2.08,9,9,0,0,1,0-5.47,5.84,5.84,0,0,1,1.22-2.08,5.41,5.41,0,0,1,1.93-1.33A6.63,6.63,0,0,1,292.65,781.8Zm0,11.45a3.29,3.29,0,0,0,2.84-1.27,7.24,7.24,0,0,0,0-7.13,3.29,3.29,0,0,0-2.84-1.28,4,4,0,0,0-1.68.33,3.12,3.12,0,0,0-1.19,1,4.23,4.23,0,0,0-.71,1.53,8.19,8.19,0,0,0-.23,2,5.87,5.87,0,0,0,.94,3.55A3.34,3.34,0,0,0,292.65,793.25Z"/><path class="cls-39" d="M301.61,794.84V782H303a.56.56,0,0,1,.6.47l.17,1.32a6.54,6.54,0,0,1,1.6-1.43,3.78,3.78,0,0,1,2.05-.56,3,3,0,0,1,2.1.72,4.06,4.06,0,0,1,1.16,2,4.23,4.23,0,0,1,.72-1.2,4.1,4.1,0,0,1,1-.84,4.16,4.16,0,0,1,1.16-.48,5.16,5.16,0,0,1,1.25-.15,4.75,4.75,0,0,1,1.8.32,3.58,3.58,0,0,1,1.34.94,4.21,4.21,0,0,1,.84,1.53,6.75,6.75,0,0,1,.29,2.07v8.17h-2.27v-8.17a3.46,3.46,0,0,0-.66-2.29,2.35,2.35,0,0,0-1.9-.78,2.87,2.87,0,0,0-1.06.2,2.53,2.53,0,0,0-.88.58,2.69,2.69,0,0,0-.6,1,3.7,3.7,0,0,0-.22,1.34v8.17h-2.27v-8.17a3.6,3.6,0,0,0-.62-2.31,2.2,2.2,0,0,0-1.81-.76,2.83,2.83,0,0,0-1.55.45,5.12,5.12,0,0,0-1.3,1.22v9.57Z"/><path class="cls-39" d="M332.87,793a4.28,4.28,0,0,1-1,.88,6.23,6.23,0,0,1-1.25.62,8,8,0,0,1-1.37.36,8.41,8.41,0,0,1-1.41.12,6.52,6.52,0,0,1-2.45-.45,5.38,5.38,0,0,1-1.94-1.32,6,6,0,0,1-1.27-2.15,8.72,8.72,0,0,1-.46-2.94,7.48,7.48,0,0,1,.41-2.51,5.93,5.93,0,0,1,1.18-2,5.46,5.46,0,0,1,1.89-1.34,6.2,6.2,0,0,1,2.51-.49,5.77,5.77,0,0,1,2.13.39,4.83,4.83,0,0,1,1.7,1.12,5.11,5.11,0,0,1,1.12,1.8,6.85,6.85,0,0,1,.41,2.44,1.47,1.47,0,0,1-.11.71.47.47,0,0,1-.43.18h-8.58a7.51,7.51,0,0,0,.34,2.12,4.23,4.23,0,0,0,.83,1.5,3.34,3.34,0,0,0,1.27.9,4.34,4.34,0,0,0,1.65.3,4.84,4.84,0,0,0,1.46-.2,7.06,7.06,0,0,0,1.06-.42,8.08,8.08,0,0,0,.74-.42,1,1,0,0,1,.51-.2.5.5,0,0,1,.43.21ZM331,787a4.45,4.45,0,0,0-.22-1.44,3.25,3.25,0,0,0-.65-1.13,2.89,2.89,0,0,0-1-.73,3.91,3.91,0,0,0-3.95.68A4.43,4.43,0,0,0,324,787Z"/><path class="cls-39" d="M338,784.57a5.78,5.78,0,0,1,1.5-2.06,3.26,3.26,0,0,1,2.17-.74,3.39,3.39,0,0,1,.78.09,2.1,2.1,0,0,1,.67.28l-.17,1.68a.36.36,0,0,1-.38.32,2.67,2.67,0,0,1-.52-.08,3.56,3.56,0,0,0-.77-.08,3.08,3.08,0,0,0-1.08.18,2.54,2.54,0,0,0-.85.53,3.72,3.72,0,0,0-.67.86,7.36,7.36,0,0,0-.54,1.17v8.11h-2.27V782h1.29a.71.71,0,0,1,.51.14.85.85,0,0,1,.19.48Z"/><path class="cls-39" d="M352.45,784.12a.5.5,0,0,1-.47.28.89.89,0,0,1-.43-.14l-.59-.31a5.67,5.67,0,0,0-.83-.32,4,4,0,0,0-1.14-.15,3.38,3.38,0,0,0-1,.15,2.48,2.48,0,0,0-.78.4,1.78,1.78,0,0,0-.49.59,1.58,1.58,0,0,0-.17.73,1.21,1.21,0,0,0,.29.82,2.48,2.48,0,0,0,.75.57,6.64,6.64,0,0,0,1.06.42l1.22.39q.63.21,1.22.46a4.41,4.41,0,0,1,1.06.63,2.88,2.88,0,0,1,.75.93,2.84,2.84,0,0,1,.29,1.32,4.19,4.19,0,0,1-.32,1.64,3.6,3.6,0,0,1-.94,1.31,4.52,4.52,0,0,1-1.52.87,6.25,6.25,0,0,1-2.08.32,6.49,6.49,0,0,1-2.43-.44,6.15,6.15,0,0,1-1.85-1.12l.53-.86a.76.76,0,0,1,.24-.25.65.65,0,0,1,.35-.09.85.85,0,0,1,.48.18q.25.18.61.39a4.68,4.68,0,0,0,.88.39,4,4,0,0,0,1.29.18,3.52,3.52,0,0,0,1.15-.17,2.43,2.43,0,0,0,.82-.46,1.83,1.83,0,0,0,.49-.67,2.09,2.09,0,0,0,.16-.81,1.35,1.35,0,0,0-.29-.88,2.41,2.41,0,0,0-.75-.6,6.09,6.09,0,0,0-1.07-.43l-1.23-.39q-.63-.2-1.23-.46a4.32,4.32,0,0,1-1.07-.65,3,3,0,0,1-.75-1,3.14,3.14,0,0,1-.28-1.4,3.41,3.41,0,0,1,.3-1.41,3.46,3.46,0,0,1,.89-1.19,4.36,4.36,0,0,1,1.43-.82,5.72,5.72,0,0,1,1.94-.3,6.14,6.14,0,0,1,2.27.4,5.4,5.4,0,0,1,1.74,1.1Z"/><path class="cls-39" d="M1322.67,788.1v7.23h-2.46V788.1l-6.65-10.92h2.15a.79.79,0,0,1,.52.16,1.41,1.41,0,0,1,.33.41l4.16,7.06.42.83a7.23,7.23,0,0,1,.33.78q.14-.39.32-.78l.39-.83,4.14-7.06a1.39,1.39,0,0,1,.32-.39.76.76,0,0,1,.52-.18h2.17Z"/><path class="cls-39" d="M1333.77,782.3a6.55,6.55,0,0,1,2.53.47,5.42,5.42,0,0,1,1.93,1.33,5.84,5.84,0,0,1,1.22,2.08,9,9,0,0,1,0,5.47,5.85,5.85,0,0,1-1.22,2.08,5.35,5.35,0,0,1-1.93,1.32,6.62,6.62,0,0,1-2.53.46,6.7,6.7,0,0,1-2.55-.46,5.33,5.33,0,0,1-1.93-1.32,5.83,5.83,0,0,1-1.22-2.08,9,9,0,0,1,0-5.47,5.82,5.82,0,0,1,1.22-2.08,5.4,5.4,0,0,1,1.93-1.33A6.63,6.63,0,0,1,1333.77,782.3Zm0,11.45a3.29,3.29,0,0,0,2.84-1.27,7.24,7.24,0,0,0,0-7.13,3.29,3.29,0,0,0-2.84-1.28,4,4,0,0,0-1.68.33,3.11,3.11,0,0,0-1.19,1,4.21,4.21,0,0,0-.71,1.53,8.19,8.19,0,0,0-.23,2,5.86,5.86,0,0,0,.94,3.55A3.34,3.34,0,0,0,1333.77,793.75Z"/><path class="cls-39" d="M1353.28,782.5v12.83h-1.34a.57.57,0,0,1-.61-.47l-.18-1.38a7,7,0,0,1-1.87,1.49,4.91,4.91,0,0,1-2.38.56,4.63,4.63,0,0,1-1.86-.35,3.67,3.67,0,0,1-1.35-1,4.16,4.16,0,0,1-.82-1.53,6.84,6.84,0,0,1-.27-2V782.5h2.26v8.18a3.43,3.43,0,0,0,.67,2.25,2.5,2.5,0,0,0,2,.8,3.83,3.83,0,0,0,1.87-.47A5.93,5.93,0,0,0,1351,792V782.5Z"/><path class="cls-39" d="M1359,785.07a5.78,5.78,0,0,1,1.5-2.06,3.26,3.26,0,0,1,2.17-.74,3.39,3.39,0,0,1,.78.09,2.1,2.1,0,0,1,.67.28l-.16,1.68a.36.36,0,0,1-.38.32,2.66,2.66,0,0,1-.52-.08,3.58,3.58,0,0,0-.77-.08,3.08,3.08,0,0,0-1.08.18,2.55,2.55,0,0,0-.85.53,3.72,3.72,0,0,0-.67.86,7.36,7.36,0,0,0-.54,1.17v8.11h-2.27V782.5h1.29a.72.72,0,0,1,.51.14.85.85,0,0,1,.19.48Z"/><path class="cls-39" d="M1381,784.78a1,1,0,0,1-.2.22.45.45,0,0,1-.28.08.75.75,0,0,1-.42-.16c-.15-.11-.34-.22-.56-.35a4.47,4.47,0,0,0-.82-.35,4.45,4.45,0,0,0-2.87.18,3.23,3.23,0,0,0-1.21,1,4.39,4.39,0,0,0-.73,1.53,7.59,7.59,0,0,0-.25,2,7.39,7.39,0,0,0,.27,2.07,4.42,4.42,0,0,0,.75,1.52,3.23,3.23,0,0,0,1.18.94,3.61,3.61,0,0,0,1.55.32,3.74,3.74,0,0,0,2.24-.63q.35-.24.58-.44a.73.73,0,0,1,.46-.2.5.5,0,0,1,.43.21l.63.82a4.48,4.48,0,0,1-1,.89,5.87,5.87,0,0,1-1.15.61,6.24,6.24,0,0,1-1.29.36,8.14,8.14,0,0,1-1.37.11,5.62,5.62,0,0,1-2.24-.44,5.11,5.11,0,0,1-1.79-1.29,6,6,0,0,1-1.19-2.07,9.16,9.16,0,0,1,0-5.45,6,6,0,0,1,1.17-2.1,5.31,5.31,0,0,1,1.89-1.37,6.34,6.34,0,0,1,2.58-.49,6.1,6.1,0,0,1,2.39.44,5.72,5.72,0,0,1,1.83,1.24Z"/><path class="cls-39" d="M1389.31,782.3a6.55,6.55,0,0,1,2.53.47,5.43,5.43,0,0,1,1.93,1.33,5.85,5.85,0,0,1,1.22,2.08,9,9,0,0,1,0,5.47,5.86,5.86,0,0,1-1.22,2.08,5.36,5.36,0,0,1-1.93,1.32,6.62,6.62,0,0,1-2.53.46,6.7,6.7,0,0,1-2.55-.46,5.35,5.35,0,0,1-1.93-1.32,5.85,5.85,0,0,1-1.22-2.08,9,9,0,0,1,0-5.47,5.84,5.84,0,0,1,1.22-2.08,5.41,5.41,0,0,1,1.93-1.33A6.63,6.63,0,0,1,1389.31,782.3Zm0,11.45a3.29,3.29,0,0,0,2.84-1.27,7.24,7.24,0,0,0,0-7.13,3.29,3.29,0,0,0-2.84-1.28,4,4,0,0,0-1.68.33,3.12,3.12,0,0,0-1.19,1,4.23,4.23,0,0,0-.71,1.53,8.19,8.19,0,0,0-.23,2,5.87,5.87,0,0,0,.94,3.55A3.34,3.34,0,0,0,1389.31,793.75Z"/><path class="cls-39" d="M1398.26,795.34V782.5h1.36a.56.56,0,0,1,.6.47l.17,1.32a6.54,6.54,0,0,1,1.6-1.43,3.78,3.78,0,0,1,2.05-.56,3,3,0,0,1,2.1.72,4.06,4.06,0,0,1,1.16,2,4.23,4.23,0,0,1,.72-1.2,4.1,4.1,0,0,1,1-.84,4.16,4.16,0,0,1,1.16-.48,5.16,5.16,0,0,1,1.25-.15,4.75,4.75,0,0,1,1.8.32,3.58,3.58,0,0,1,1.34.94,4.21,4.21,0,0,1,.84,1.53,6.75,6.75,0,0,1,.29,2.07v8.17h-2.27v-8.17a3.46,3.46,0,0,0-.66-2.29,2.35,2.35,0,0,0-1.9-.78,2.87,2.87,0,0,0-1.06.2,2.53,2.53,0,0,0-.88.58,2.69,2.69,0,0,0-.6,1,3.7,3.7,0,0,0-.22,1.34v8.17h-2.27v-8.17a3.6,3.6,0,0,0-.62-2.31,2.2,2.2,0,0,0-1.81-.76,2.83,2.83,0,0,0-1.55.45,5.12,5.12,0,0,0-1.3,1.22v9.57Z"/><path class="cls-39" d="M1421.26,784.49a6.64,6.64,0,0,1,1.88-1.61,4.82,4.82,0,0,1,2.43-.61,4.66,4.66,0,0,1,2,.42,4.13,4.13,0,0,1,1.53,1.25,6,6,0,0,1,1,2.06,10.54,10.54,0,0,1,.34,2.83,8.84,8.84,0,0,1-.38,2.64,6.36,6.36,0,0,1-1.1,2.12,5.07,5.07,0,0,1-4.07,1.92,4.69,4.69,0,0,1-2-.4,4.75,4.75,0,0,1-1.49-1.11v5.68h-2.27V782.5h1.36a.56.56,0,0,1,.6.47Zm.11,7.75a3.64,3.64,0,0,0,1.36,1.18,3.84,3.84,0,0,0,1.65.34,3.25,3.25,0,0,0,2.76-1.28,6,6,0,0,0,1-3.65,9.07,9.07,0,0,0-.22-2.15,4.19,4.19,0,0,0-.64-1.48,2.48,2.48,0,0,0-1-.84,3.4,3.4,0,0,0-1.38-.27,3.64,3.64,0,0,0-1.93.51,5.57,5.57,0,0,0-1.53,1.43Z"/><path class="cls-39" d="M1433,784.31a7.33,7.33,0,0,1,2.29-1.53,7.08,7.08,0,0,1,2.72-.51,4.86,4.86,0,0,1,1.91.36,3.91,3.91,0,0,1,1.41,1,4.17,4.17,0,0,1,.86,1.53,6.39,6.39,0,0,1,.29,2v8.21h-1a1,1,0,0,1-.51-.11.74.74,0,0,1-.28-.42l-.25-1.22a12.41,12.41,0,0,1-1,.83,5.63,5.63,0,0,1-1,.61,5.46,5.46,0,0,1-1.13.38,6.18,6.18,0,0,1-1.34.13,4.64,4.64,0,0,1-1.41-.21,3.23,3.23,0,0,1-1.15-.63,3,3,0,0,1-.77-1.06,3.71,3.71,0,0,1-.29-1.51,2.83,2.83,0,0,1,.42-1.46,3.66,3.66,0,0,1,1.36-1.25,8.92,8.92,0,0,1,2.44-.89,18.67,18.67,0,0,1,3.7-.4v-1a3.43,3.43,0,0,0-.65-2.26,2.33,2.33,0,0,0-1.89-.77,4.05,4.05,0,0,0-1.4.21,5.16,5.16,0,0,0-1,.47l-.71.47a1,1,0,0,1-.59.21.64.64,0,0,1-.39-.12,1.1,1.1,0,0,1-.28-.3Zm7.29,5.25a18.86,18.86,0,0,0-2.65.25,7.52,7.52,0,0,0-1.79.51,2.46,2.46,0,0,0-1,.75,1.61,1.61,0,0,0-.31,1,2.13,2.13,0,0,0,.16.87,1.62,1.62,0,0,0,.45.6,1.82,1.82,0,0,0,.67.34,3.09,3.09,0,0,0,.83.11,4.61,4.61,0,0,0,1.09-.12,4.1,4.1,0,0,0,.93-.35,5.33,5.33,0,0,0,.84-.54,7.39,7.39,0,0,0,.78-.72Z"/><path class="cls-39" d="M1448,784.36a7.54,7.54,0,0,1,.89-.85,5.81,5.81,0,0,1,1-.65,5,5,0,0,1,1.12-.42,5.27,5.27,0,0,1,1.27-.15,4.63,4.63,0,0,1,1.86.35,3.59,3.59,0,0,1,1.34,1,4.37,4.37,0,0,1,.82,1.54,6.68,6.68,0,0,1,.28,2v8.17h-2.27v-8.17a3.45,3.45,0,0,0-.67-2.26,2.47,2.47,0,0,0-2-.8,3.78,3.78,0,0,0-1.87.48,6.12,6.12,0,0,0-1.6,1.3v9.45h-2.27V782.5h1.36a.56.56,0,0,1,.6.47Z"/><path class="cls-39" d="M1470.8,782.5l-7.16,16.62a1.18,1.18,0,0,1-.29.41.77.77,0,0,1-.53.15h-1.67l2.34-5.09-5.3-12.09h2a.69.69,0,0,1,.46.15.76.76,0,0,1,.23.32l3.43,8.08a9,9,0,0,1,.34,1.12q.18-.6.38-1.13l3.33-8.07a.73.73,0,0,1,.26-.34.68.68,0,0,1,.41-.13Z"/></g></g></svg>