<svg xmlns="http://www.w3.org/2000/svg" viewBox="0 0 696 480" version="1.1"><g id="Illustrations-/-Herobox-/-Features" stroke="none" stroke-width="1" fill="none" fill-rule="evenodd"><path d="M245.026 78.599c110.602-.968 132.921 37.609 223.568 22.53 64.125-10.666 95.544-31.375 124.056-12.37 14.226 9.481 22.796 33.734 15.048 49.45-20.055 40.68-126.867 2.172-248.852 40.929-111.29 35.357-194.44 118.748-181.379 141.421 8.572 14.878 62.08 3.248 99.48-14.78 54.03-26.043 61.159-59.035 97.264-85.04 71.203-51.284 215.405-46.799 267.016 33.9 43.91 68.66 14.312 182.345-29.94 194.76-50.708 14.225-86.593-114.083-181.276-118.81-79.538-3.972-98.974 84.343-191.358 91.464-83.191 6.414-179.822-39.31-196.547-131.368C27.464 210.1 69.396 155.736 75.54 149.39c56.696-58.541 154.167-70.657 169.485-70.791z" id="Fill-4" fill="#FAFAFA"/><path d="M504.97 42.486c-20.743-20.17-107.233-15.651-120.025 0-12.687 15.523 39.242 51.638 81.756 45.87 31.53-4.276 53.557-31.002 38.269-45.87M388.03 426.962c-12.398-12.14 5.464-33.965 31.033-37.458 34.476-4.709 76.587 24.782 66.299 37.458-10.374 12.78-80.511 16.47-97.332 0z" id="Fill-37" fill="#FAFAFA"/><path d="M98 413.45c0 1.353.987 2.45 2.205 2.45h495.59c1.218 0 2.205-1.097 2.205-2.45 0-1.353-.987-2.45-2.205-2.45h-495.59c-1.218 0-2.205 1.097-2.205 2.45" id="Fill-38" fill="#ECEFF1"/><path d="M74.384 291.26l121 104" id="Stroke-4" stroke="#ECEFF1" stroke-width="2"/><path d="M192 256.641l3.384 138.618" id="Stroke-6" stroke="#ECEFF1" stroke-width="2"/><path d="M74.384 291.26L192 258" id="Stroke-8" stroke="#ECEFF1" stroke-width="2"/><path d="M74.384 291.26L59 168" id="Stroke-10" stroke="#ECEFF1" stroke-width="2"/><path d="M155.361 123.206l-94.099 44.686" id="Stroke-12" stroke="#ECEFF1" stroke-width="2"/><path d="M324.5 83.26l-169.765 43.936" id="Stroke-16" stroke="#ECEFF1" stroke-width="2"/><path d="M192 256.641l-37.266-129.444" id="Stroke-18" stroke="#ECEFF1" stroke-width="2"/><path d="M394.99 156.853l88.623 6" id="Stroke-20" stroke="#ECEFF1" stroke-width="2"/><path d="M324.5 83.26l70.49 73.593" id="Stroke-22" stroke="#ECEFF1" stroke-width="2"/><path d="M583.613 253.388l-100-90.534" id="Stroke-26" stroke="#ECEFF1" stroke-width="2"/><path d="M583.613 253.388L576 111" id="Stroke-28" stroke="#ECEFF1" stroke-width="2"/><path d="M483.613 162.853L576 111" id="Stroke-30" stroke="#ECEFF1" stroke-width="2"/><path d="M583.613 253.388l-118.014 6.507" id="Stroke-34" stroke="#ECEFF1" stroke-width="2"/><path d="M465.6 259.894l58.013 83.365M419 393l104.613-49.74M465.6 259.894L399 220.317M303 182l96 38.317M303 182l-111 74.641M303 182l21.5-98.74" id="Stroke-36" stroke="#ECEFF1" stroke-width="2"/><g id="Group" transform="translate(210 314)"><path d="M22.38 100.997c6.5-.282 11.901-20.32 8.267-22.708-1.632-1.073-4.655 1.7-5.684.662-2.026-2.042 8.224-14.255 6.478-15.92-1.075-1.023-5.49 3.096-6.973 1.957-2.77-2.127 8.276-19.836 6.129-21.314-1.162-.8-4.966 3.979-6.556 3.051-2.685-1.564 4.238-17.47 2.448-18.311-.965-.454-3.072 4.134-5.318 3.767-3.718-.609-3.991-14.172-5.996-14.181-1.261-.007-1.036 5.367-4.099 6.772-3.762 1.726-9.308-3.99-10.164-3.108-1.272 1.309 10.875 14.028 9.105 16.107-1.052 1.236-6.272-2.168-7.305-.866-1.412 1.775 6.901 9.874 5.41 11.673-.75.907-3.235-.696-4.012.182-1.826 2.059 9.369 13.755 7.617 15.708-.767.856-3.342-.92-4.046-.102-1.679 1.956 11.726 13.544 8.87 18.997-.707 1.35-1.766 1.096-2.576 2.59-2.544 4.698 3.599 15.253 8.404 15.044" id="Fill-75" fill="#26A69A"/><path d="M22.265 81.483c-5.855-12.848-7.1-17.876-5.855-18.494 1.48-.736 6.294 4.847 7.048 4.313 1.092-.775-8.584-12.889-7.056-14.07.943-.727 5.162 3.47 6.515 2.633 2.582-1.594-8.44-19.547-7.095-20.25.913-.478 4.653 4.417 6.115 3.79 2.388-1.026-6.44-21.155-4.112-22.113 1.233-.509 4.615 5.858 6.942 5.277 4.009-.998.655-21.537 2.744-21.822 1.297-.178 2.345 7.78 6.237 8.456 4.76.826 10.55-9.802 11.745-9.176 1.006.527-3.882 7.683-1.16 10.608 1.985 2.133 6.39.27 7.329 1.742 2.054 3.223-16.823 15.621-15.207 17.918.865 1.23 6.804-1.576 7.894-.15 1.79 2.345-12.104 12.735-10.254 15.184 1.123 1.486 6.971-1.361 8.213.21 2.005 2.538-11.062 12.758-8.873 15.653 1.198 1.587 5.843-.523 7.044 1.063 2.233 2.943-11.33 13.439-8.977 16.618 1.087 1.47 4.496-.075 5.912 1.594 2.055 2.42-1.374 10.064-6.61 11.34-7.917 1.928-18.248-11.129-16.859-12.82.453-.552 2.469-.259 8.32 2.496" id="Fill-76" fill="#4DB6AC"/><path d="M6.819 89l3.93 10.277c1.315 3.436 4.743 5.723 8.58 5.723h11.979c3.837 0 7.266-2.287 8.58-5.723L43.818 89h-37z" id="Fill-77" fill="#BA68C8"/></g><g id="Icons-/-Features-/-01_Basic-/-ShortNumbers" transform="translate(165.384 365.26)"><path d="M39.6 60c6.65 0 8.775 0 11.775-1A12.6 12.6 0 0 0 59 51.375c1-3 1-5.125 1-11.775V20.4c0-6.65 0-8.775-1-11.775A12.608 12.608 0 0 0 51.375 1c-3-1-5.125-1-11.775-1H20.4c-6.65 0-8.775 0-11.775 1A12.6 12.6 0 0 0 1 8.625c-1 3-1 5.125-1 11.775v19.2c0 6.65 0 8.775 1 11.775 1.25 3.5 4.13 6.375 7.63 7.625 3 1 5.12 1 11.77 1h19.2z" id="Base" fill="#2196F3" fill-rule="evenodd"/><path d="M19 37.5v-11h-2.75v-2.75h5.5V37.5H19zm24.75-2.75A2.75 2.75 0 0 1 41 37.5h-5.5v-2.75H41V32h-2.75v-2.75H41V26.5h-5.5v-2.75H41a2.75 2.75 0 0 1 2.75 2.75v2.063a2.06 2.06 0 0 1-2.063 2.062 2.06 2.06 0 0 1 2.063 2.063v2.062zm-11 0v2.75H24.5V32a2.75 2.75 0 0 1 2.75-2.75H30V26.5h-5.5v-2.75H30a2.75 2.75 0 0 1 2.75 2.75v2.75A2.75 2.75 0 0 1 30 32h-2.75v2.75h5.5z" id="Shape" fill="#FFF" fill-rule="nonzero"/></g><g id="Icons-/-Features-/-03_Statistics-/-RealTimeDashboard" transform="translate(44.384 261.26)"><path d="M39.6 60c6.65 0 8.775 0 11.775-1A12.6 12.6 0 0 0 59 51.375c1-3 1-5.125 1-11.775V20.4c0-6.65 0-8.775-1-11.775A12.608 12.608 0 0 0 51.375 1c-3-1-5.125-1-11.775-1H20.4c-6.65 0-8.775 0-11.775 1A12.6 12.6 0 0 0 1 8.625c-1 3-1 5.125-1 11.775v19.2c0 6.65 0 8.775 1 11.775 1.25 3.5 4.13 6.375 7.63 7.625 3 1 5.12 1 11.77 1h19.2z" id="Base" fill="#4DB6AC" fill-rule="evenodd"/><path d="M20.75 31.25h6a2 2 0 0 0 2-2v-8.5a2 2 0 0 0-2-2h-6a2 2 0 0 0-2 2v8.5a2 2 0 0 0 2 2zm0 10h6a2 2 0 0 0 2-2v-3.5a2 2 0 0 0-2-2h-6a2 2 0 0 0-2 2v3.5a2 2 0 0 0 2 2zm12.5 0h6a2 2 0 0 0 2-2v-8.5a2 2 0 0 0-2-2h-6a2 2 0 0 0-2 2v8.5a2 2 0 0 0 2 2zm-2-20.5v3.5a2 2 0 0 0 2 2h6a2 2 0 0 0 2-2v-3.5a2 2 0 0 0-2-2h-6a2 2 0 0 0-2 2z" id="Shape" fill="#FFF" fill-rule="nonzero"/></g><g id="Icons-/-Features-/-02_AdvancedCallRouting-/-AutomaticOutboundCallerID" transform="translate(168 234)"><path d="M31.68 48c5.32 0 7.02 0 9.42-.8 2.828-1 5.1-3.272 6.1-6.1.8-2.4.8-4.1.8-9.42V16.32c0-5.32 0-7.02-.8-9.42A10.086 10.086 0 0 0 41.1.8C38.7 0 37 0 31.68 0H16.32C11 0 9.3 0 6.9.8A10.08 10.08 0 0 0 .8 6.9C0 9.3 0 11 0 16.32v15.36C0 37 0 38.7.8 41.1c1 2.8 3.304 5.1 6.104 6.1 2.4.8 4.096.8 9.416.8h15.36z" id="Base" fill="#FFD54F" fill-rule="evenodd"/><path d="M33.167 16H14.833A1.839 1.839 0 0 0 13 17.833v12.834c0 1.008.825 1.833 1.833 1.833h18.334a1.83 1.83 0 0 0 1.824-1.833L35 17.833A1.839 1.839 0 0 0 33.167 16zm-12.834 2.75a2.746 2.746 0 0 1 2.75 2.75 2.746 2.746 0 0 1-2.75 2.75 2.746 2.746 0 0 1-2.75-2.75 2.746 2.746 0 0 1 2.75-2.75zm5.5 11h-11v-.917c0-1.833 3.667-2.841 5.5-2.841 1.834 0 5.5 1.008 5.5 2.841v.917zm3.53-3.667h1.503l1.384 1.834-1.824 1.824a6.886 6.886 0 0 1-2.503-3.658 6.76 6.76 0 0 1-.256-1.833c0-.633.091-1.247.256-1.833a6.851 6.851 0 0 1 2.503-3.658l1.824 1.824-1.384 1.834h-1.503a5.545 5.545 0 0 0-.321 1.833c0 .642.119 1.256.32 1.833z" id="Shape" fill="#FFF" fill-rule="nonzero"/></g><g id="Icons-/-Features-/-04_Integrations-/-CreateTasks" transform="translate(289 168)"><path d="M18.48 28c3.103 0 4.095 0 5.495-.467a5.88 5.88 0 0 0 3.558-3.558c.467-1.4.467-2.392.467-5.495V9.52c0-3.103 0-4.095-.467-5.495A5.884 5.884 0 0 0 23.975.467C22.575 0 21.583 0 18.48 0H9.52C6.417 0 5.425 0 4.025.467A5.88 5.88 0 0 0 .467 4.025C0 5.425 0 6.417 0 9.52v8.96c0 3.103 0 4.095.467 5.495a5.967 5.967 0 0 0 3.56 3.558C5.427 28 6.417 28 9.52 28h8.96z" id="Base" fill="#BA68C8" fill-rule="evenodd"/><path d="M17.938 7.583h-7.875c-.725 0-1.313.628-1.313 1.4v10.034c0 .772.588 1.4 1.313 1.4h7.874c.725 0 1.313-.628 1.313-1.4V8.983c0-.772-.588-1.4-1.313-1.4zm-4.58 11.024l-2.595-2.595.99-.99 1.605 1.605 3.005-3.005.99.99-3.995 3.995zm0-4.433l-2.595-2.596.99-.99 1.605 1.606 3.005-3.006.99.99-3.995 3.996z" id="Shape" fill="#FFF" fill-rule="nonzero"/></g><g id="Icons-/-Features-/-03_Statistics-/-AgentReporting" transform="translate(385 206)"><path d="M18.48 28c3.103 0 4.095 0 5.495-.467a5.88 5.88 0 0 0 3.558-3.558c.467-1.4.467-2.392.467-5.495V9.52c0-3.103 0-4.095-.467-5.495A5.884 5.884 0 0 0 23.975.467C22.575 0 21.583 0 18.48 0H9.52C6.417 0 5.425 0 4.025.467A5.88 5.88 0 0 0 .467 4.025C0 5.425 0 6.417 0 9.52v8.96c0 3.103 0 4.095.467 5.495a5.967 5.967 0 0 0 3.56 3.558C5.427 28 6.417 28 9.52 28h8.96z" id="Base" fill="#4DB6AC" fill-rule="evenodd"/><path d="M14.583 12.25h3.209l-3.209-3.208v3.208zM10.5 8.167h4.667l3.5 3.5v7c0 .644-.523 1.166-1.167 1.166h-7.006a1.16 1.16 0 0 1-1.16-1.166l.005-9.334c0-.644.516-1.166 1.161-1.166zm4.667 10.5v-.583c0-.777-1.556-1.166-2.333-1.166-.778 0-2.334.39-2.334 1.166v.584h4.667zm-2.333-4.666a1.167 1.167 0 1 0 0 2.335 1.167 1.167 0 0 0 0-2.335z" id="Shape" fill="#FFF" fill-rule="nonzero"/></g><path d="M469.2 270c2.217 0 2.925 0 3.925-.333a4.202 4.202 0 0 0 2.542-2.542c.333-1 .333-1.708.333-3.925v-6.4c0-2.217 0-2.925-.333-3.925a4.205 4.205 0 0 0-2.542-2.542c-1-.333-1.708-.333-3.925-.333h-6.4c-2.216 0-2.925 0-3.925.333a4.2 4.2 0 0 0-2.541 2.542c-.334 1-.334 1.708-.334 3.925v6.4c0 2.217 0 2.925.334 3.925a4.26 4.26 0 0 0 2.543 2.542c1 .333 1.707.333 3.923.333h6.4zm148 118c2.217 0 2.925 0 3.925-.333a4.202 4.202 0 0 0 2.542-2.542c.333-1 .333-1.708.333-3.925v-6.4c0-2.217 0-2.925-.333-3.925a4.205 4.205 0 0 0-2.542-2.542c-1-.333-1.708-.333-3.925-.333h-6.4c-2.216 0-2.925 0-3.925.333a4.2 4.2 0 0 0-2.541 2.542c-.334 1-.334 1.708-.334 3.925v6.4c0 2.217 0 2.925.334 3.925a4.26 4.26 0 0 0 2.543 2.542c1 .333 1.707.333 3.923.333h6.4z" id="Fill-72" fill="#ECEFF1"/><g id="Icons-/-Features-/-04_Integrations-/-API" transform="translate(46 155)"><path d="M17.16 26c2.882 0 3.802 0 5.102-.433a5.46 5.46 0 0 0 3.305-3.305c.433-1.3.433-2.22.433-5.102V8.84c0-2.882 0-3.803-.433-5.103A5.463 5.463 0 0 0 22.262.433C20.962 0 20.043 0 17.16 0H8.84C5.958 0 5.037 0 3.737.433A5.46 5.46 0 0 0 .433 3.737C0 5.037 0 5.958 0 8.84v8.32c0 2.882 0 3.802.433 5.102a5.54 5.54 0 0 0 3.307 3.305C5.04 26 5.958 26 8.84 26h8.32z" id="Base" fill="#BA68C8" fill-rule="evenodd"/><path d="M11.592 15.492L9.1 13l2.492-2.492-.759-.758L7.583 13l3.25 3.25.759-.758zm2.816 0L16.9 13l-2.492-2.492.759-.758 3.25 3.25-3.25 3.25-.759-.758z" id="Shape" fill="#FFF" fill-rule="nonzero"/></g><path d="M99.186 357.12c1.108 0 1.462 0 1.962-.167a2.096 2.096 0 0 0 1.27-1.27c.168-.5.168-.855.168-1.963v-3.2c0-1.108 0-1.463-.167-1.963a2.1 2.1 0 0 0-1.271-1.27c-.5-.167-.854-.167-1.962-.167h-3.2c-1.11 0-1.463 0-1.963.167a2.106 2.106 0 0 0-1.271 1.27c-.166.5-.166.855-.166 1.963v3.2c0 1.108 0 1.463.166 1.963a2.133 2.133 0 0 0 1.272 1.27c.5.167.853.167 1.962.167h3.2z" id="Fill-76" fill="#2196F3"/><path d="M597.512 329.07c1.108 0 1.463 0 1.963-.168a2.097 2.097 0 0 0 1.27-1.27c.167-.5.167-.855.167-1.963v-3.2c0-1.108 0-1.463-.167-1.963a2.1 2.1 0 0 0-1.27-1.27c-.5-.167-.855-.167-1.963-.167h-3.199c-1.109 0-1.463 0-1.963.167a2.1 2.1 0 0 0-1.27 1.27c-.168.5-.168.855-.168 1.963v3.2c0 1.108 0 1.463.167 1.963a2.128 2.128 0 0 0 1.272 1.27c.5.167.853.167 1.962.167h3.2z" id="Fill-78" fill="#2196F3"/><path d="M456.2 94.26c1.107 0 1.461 0 1.961-.168a2.098 2.098 0 0 0 1.271-1.27c.167-.5.167-.855.167-1.963v-3.2c0-1.108 0-1.463-.167-1.963a2.1 2.1 0 0 0-1.27-1.27c-.5-.167-.855-.167-1.963-.167H453c-1.109 0-1.463 0-1.963.167a2.1 2.1 0 0 0-1.27 1.27c-.167.5-.167.855-.167 1.963v3.2c0 1.108 0 1.463.166 1.963a2.133 2.133 0 0 0 1.272 1.27c.5.167.853.167 1.962.167h3.2z" id="Fill-80" fill="#2196F3"/><path d="M242.896 153.455c1.108 0 1.462 0 1.962-.167a2.098 2.098 0 0 0 1.271-1.27c.167-.5.167-.855.167-1.963v-3.2c0-1.108 0-1.463-.167-1.963a2.098 2.098 0 0 0-1.27-1.27c-.5-.167-.855-.167-1.963-.167h-3.2c-1.108 0-1.463 0-1.963.167a2.1 2.1 0 0 0-1.27 1.27c-.167.5-.167.855-.167 1.963v3.2c0 1.108 0 1.463.167 1.963a2.129 2.129 0 0 0 1.271 1.27c.5.167.854.167 1.962.167h3.2z" id="Fill-82" fill="#CFD8DC"/><path d="M398.19 166.853c2.218 0 2.926 0 3.926-.333a4.202 4.202 0 0 0 2.542-2.542c.333-1 .333-1.708.333-3.925v-6.4c0-2.217 0-2.925-.333-3.925a4.202 4.202 0 0 0-2.542-2.542c-1-.333-1.708-.333-3.925-.333h-6.4c-2.217 0-2.925 0-3.925.333a4.202 4.202 0 0 0-2.542 2.542c-.333 1-.333 1.708-.333 3.925v6.4c0 2.217 0 2.925.333 3.925a4.264 4.264 0 0 0 2.544 2.542c1 .333 1.706.333 3.923.333h6.4z" id="Fill-84" fill="#ECEFF1"/><g id="Icons-/-Features-/-05_Utilities-/-BrowserNotifications" transform="translate(125.771 95.18)"><path d="M39.6 60c6.65 0 8.775 0 11.775-1A12.6 12.6 0 0 0 59 51.375c1-3 1-5.125 1-11.775V20.4c0-6.65 0-8.775-1-11.775A12.608 12.608 0 0 0 51.375 1c-3-1-5.125-1-11.775-1H20.4c-6.65 0-8.775 0-11.775 1A12.6 12.6 0 0 0 1 8.625c-1 3-1 5.125-1 11.775v19.2c0 6.65 0 8.775 1 11.775 1.25 3.5 4.13 6.375 7.63 7.625 3 1 5.12 1 11.77 1h19.2z" id="Base" fill="#FF8A65" fill-rule="evenodd"/><path d="M30 41.875c1.375 0 2.5-1.125 2.5-2.5h-5a2.5 2.5 0 0 0 2.5 2.5zm7.5-7.5v-6.25c0-3.837-2.05-7.05-5.625-7.9v-.85A1.872 1.872 0 0 0 30 17.5a1.872 1.872 0 0 0-1.875 1.875v.85c-3.587.85-5.625 4.05-5.625 7.9v6.25l-2.5 2.5v1.25h20v-1.25l-2.5-2.5z" id="Shape" fill="#FFF" fill-rule="nonzero"/></g><g id="Icons-/-Features-/-01_Basic-/-Voicemail" transform="translate(499.613 319.26)"><path d="M31.68 48c5.32 0 7.02 0 9.42-.8 2.828-1 5.1-3.272 6.1-6.1.8-2.4.8-4.1.8-9.42V16.32c0-5.32 0-7.02-.8-9.42A10.086 10.086 0 0 0 41.1.8C38.7 0 37 0 31.68 0H16.32C11 0 9.3 0 6.9.8A10.08 10.08 0 0 0 .8 6.9C0 9.3 0 11 0 16.32v15.36C0 37 0 38.7.8 41.1c1 2.8 3.304 5.1 6.104 6.1 2.4.8 4.096.8 9.416.8h15.36z" id="Base" fill="#2196F3" fill-rule="evenodd"/><path d="M30.5 19c-3.04 0-5.5 2.46-5.5 5.5 0 1.33.47 2.55 1.26 3.5h-4.52c.79-.95 1.26-2.17 1.26-3.5 0-3.04-2.46-5.5-5.5-5.5S12 21.46 12 24.5s2.46 5.5 5.5 5.5h13c3.04 0 5.5-2.46 5.5-5.5S33.54 19 30.5 19zm-13 9c-1.93 0-3.5-1.57-3.5-3.5s1.57-3.5 3.5-3.5 3.5 1.57 3.5 3.5-1.57 3.5-3.5 3.5zm13 0c-1.93 0-3.5-1.57-3.5-3.5s1.57-3.5 3.5-3.5 3.5 1.57 3.5 3.5-1.57 3.5-3.5 3.5z" id="Shape" fill="#FFF" fill-rule="nonzero"/></g><g id="Icons-/-Features-/-05_Utilities-/-ResponsiveWebAdmin" transform="translate(553.613 223.26)"><path d="M39.6 60c6.65 0 8.775 0 11.775-1A12.6 12.6 0 0 0 59 51.375c1-3 1-5.125 1-11.775V20.4c0-6.65 0-8.775-1-11.775A12.608 12.608 0 0 0 51.375 1c-3-1-5.125-1-11.775-1H20.4c-6.65 0-8.775 0-11.775 1A12.6 12.6 0 0 0 1 8.625c-1 3-1 5.125-1 11.775v19.2c0 6.65 0 8.775 1 11.775 1.25 3.5 4.13 6.375 7.63 7.625 3 1 5.12 1 11.77 1h19.2z" id="Base" fill="#FF8A65" fill-rule="evenodd"/><path d="M20 22.5V35l6.25.002v-5a2.5 2.5 0 0 1 2.5-2.5H35a2.5 2.5 0 0 1 2.5 2.5V35H40V22.5H20zM15 40v-2.5h5a2.5 2.5 0 0 1-2.5-2.5V22.5A2.5 2.5 0 0 1 20 20h20a2.5 2.5 0 0 1 2.5 2.5L42.487 35A2.49 2.49 0 0 1 40 37.5h5V40h-7.5v.002a2.5 2.5 0 0 1-2.5 2.5h-6.25a2.5 2.5 0 0 1-2.5-2.5L15 40zm14.375.002a.625.625 0 1 0 0 1.25.625.625 0 0 0 0-1.25zm5 0a.625.625 0 1 0 0 1.25.625.625 0 0 0 0-1.25zm-3.125 0v1.25h1.25v-1.25h-1.25zm-2.5-10v8.75H35v-8.75h-6.25z" id="Shape" fill="#FFF" fill-rule="nonzero"/></g><g id="Icons-/-Features-/-04_Integrations-/-RealTimeCustomerCard" transform="translate(560 95)"><path d="M21.12 32c3.547 0 4.68 0 6.28-.533a6.72 6.72 0 0 0 4.067-4.067C32 25.8 32 24.667 32 21.12V10.88c0-3.547 0-4.68-.533-6.28A6.724 6.724 0 0 0 27.4.533C25.8 0 24.667 0 21.12 0H10.88C7.333 0 6.2 0 4.6.533A6.72 6.72 0 0 0 .533 4.6C0 6.2 0 7.333 0 10.88v10.24c0 3.547 0 4.68.533 6.28a6.82 6.82 0 0 0 4.07 4.067c1.6.533 2.73.533 6.277.533h10.24z" id="Base" fill="#BA68C8" fill-rule="evenodd"/><path d="M9.889 10.667H22.11c.64 0 1.222.582 1.222 1.222v8.555c0 .64-.582 1.223-1.222 1.223H9.89c-.64 0-1.222-.583-1.222-1.223V11.89c0-.64.582-1.222 1.222-1.222zm7.333 1.833v.611h4.89V12.5h-4.89zm0 1.222v.611h4.889v-.61h-4.889zm0 1.222v.612H21.5v-.612h-4.278zm-3.666 2.388c-1.223 0-3.667.668-3.667 1.89v.611h7.333v-.61c0-1.223-2.444-1.891-3.666-1.891zm0-4.832a1.833 1.833 0 1 0 0 3.667 1.833 1.833 0 0 0 0-3.667z" id="Shape" fill="#FFF" fill-rule="nonzero"/></g><g id="Icons-/-Features-/-02_AdvancedCallRouting-/-ACD" transform="translate(454 133)"><path d="M39.6 60c6.65 0 8.775 0 11.775-1A12.6 12.6 0 0 0 59 51.375c1-3 1-5.125 1-11.775V20.4c0-6.65 0-8.775-1-11.775A12.608 12.608 0 0 0 51.375 1c-3-1-5.125-1-11.775-1H20.4c-6.65 0-8.775 0-11.775 1A12.6 12.6 0 0 0 1 8.625c-1 3-1 5.125-1 11.775v19.2c0 6.65 0 8.775 1 11.775 1.25 3.5 4.13 6.375 7.63 7.625 3 1 5.12 1 11.77 1h19.2z" id="Base" fill="#FFD54F" fill-rule="evenodd"/><path d="M29.967 34.167a3.343 3.343 0 0 1-3.334-3.334c0-1.833 1.5-3.333 3.334-3.333 1.85 0 3.333 1.5 3.333 3.333a3.332 3.332 0 0 1-3.333 3.334zm6.666 0a3.25 3.25 0 0 1-1.633-.45c.5-.85.8-1.834.8-2.884 0-1.05-.3-2.033-.8-2.883a3.202 3.202 0 0 1 1.633-.45 3.332 3.332 0 1 1 0 6.667zm-6.666 2c2.783 0 8.333 1.383 8.333 4.166V42.5H21.633v-2.167c0-2.783 5.55-4.166 8.334-4.166zM40.8 40.333c0-1.683-.867-2.983-2.117-3.983 2.834.467 6.284 1.8 6.284 3.983V42.5H40.8v-2.167zm-17.467-6.166c-1.85 0-3.333-1.5-3.333-3.334a3.332 3.332 0 0 1 3.333-3.333c.6 0 1.15.167 1.634.45-.5.85-.8 1.833-.8 2.883s.3 2.034.8 2.884c-.484.283-1.05.45-1.634.45zm-2.05 2.183c-1.25 1-2.116 2.3-2.116 3.983V42.5H15v-2.167c0-2.183 3.45-3.516 6.283-3.983zm14.967-15.1h-15v-.5a2 2 0 0 1 2-2h5.5v-2.5h2.5v2.5h5.5a2 2 0 0 1 2 2V25h-2.5v-3.75zm-7.5 1.25h2.5V25h-2.5v-2.5zm-7.5 0h2.5V25h-2.5v-2.5z" id="Combined-Shape" fill="#FFF" fill-rule="nonzero"/></g><g id="Icons-/-Features-/-02_AdvancedCallRouting-/-RingGroups" transform="translate(399 373)"><path d="M26.4 40c4.433 0 5.85 0 7.85-.667a8.4 8.4 0 0 0 5.083-5.083c.667-2 .667-3.417.667-7.85V13.6c0-4.433 0-5.85-.667-7.85A8.405 8.405 0 0 0 34.25.667C32.25 0 30.833 0 26.4 0H13.6C9.167 0 7.75 0 5.75.667A8.4 8.4 0 0 0 .667 5.75C0 7.75 0 9.167 0 13.6v12.8c0 4.433 0 5.85.667 7.85.833 2.333 2.753 4.25 5.086 5.083C7.753 40 9.167 40 13.6 40h12.8z" id="Base" fill="#FFD54F" fill-rule="evenodd"/><path d="M16.25 19.167a2.5 2.5 0 1 0 .001-4.999 2.5 2.5 0 0 0-.001 4.999zm7.5 0a2.5 2.5 0 1 0 0-5 2.5 2.5 0 1 0 0 5zm-7.5 1.5c-2.088 0-6.25 1.037-6.25 3.125v1.625h12.5v-1.625c0-2.088-4.163-3.125-6.25-3.125zm7.5 0c-.313 0-.675.025-1.05.075.988.75 1.675 1.75 1.675 3.05v1.625H30v-1.625c0-2.088-4.163-3.125-6.25-3.125z" id="Shape" fill="#FFF" fill-rule="nonzero"/></g><g id="Group-2" transform="translate(427 378)"><path d="M6.555 24.587C1.486 20.717-.92 14.18.322 13.078c1.065-.944 4.697 2.222 5.765 1.228 1.576-1.467-4.6-9.971-3.583-10.742.827-.628 5.096 4.88 7.48 3.836 2.05-.9 1.204-6.003 2.648-6.292 1.296-.259 2.15 3.827 4.519 4.144 3.023.404 5.266-5.764 7.48-5.218 1.95.48.845 5.426 3.895 7.366 2.739 1.743 6.413-.474 7.012.614.901 1.636-7.171 7.076-6.233 8.748.536.954 3.448-.317 4.207.766.925 1.32-1.753 5.553-5.297 7.98-5.98 4.096-15.492 3.792-21.66-.92" id="Fill-1" fill="#4DB6AC"/><path d="M33.512 23l-4.31 12.08c-.62 2.958-3.367 5.09-6.56 5.09H11.87c-3.194 0-5.94-2.132-6.561-5.09L1 23h32.512z" id="Fill-4" fill="#FF8A65"/></g><g id="Icons-/-Features-/-01_Basic-/-BusinessHours" transform="translate(294.5 53.26)"><path d="M39.6 60c6.65 0 8.775 0 11.775-1A12.6 12.6 0 0 0 59 51.375c1-3 1-5.125 1-11.775V20.4c0-6.65 0-8.775-1-11.775A12.608 12.608 0 0 0 51.375 1c-3-1-5.125-1-11.775-1H20.4c-6.65 0-8.775 0-11.775 1A12.6 12.6 0 0 0 1 8.625c-1 3-1 5.125-1 11.775v19.2c0 6.65 0 8.775 1 11.775 1.25 3.5 4.13 6.375 7.63 7.625 3 1 5.12 1 11.77 1h19.2z" id="Base" fill="#2196F3" fill-rule="evenodd"/><path d="M32.5 31.251h1.875v3.529l3.048 1.759-.938 1.624-3.985-2.301v-4.61zm5-6.252H20v13.75h5.841a8.75 8.75 0 0 1 7.909-12.497c1.342 0 2.613.301 3.75.841V25zM20 41.248a2.5 2.5 0 0 1-2.5-2.5l.013-17.498c0-1.382 1.104-2.5 2.487-2.5h1.25v-2.5h2.5v2.5h10v-2.5h2.5v2.5h1.25a2.5 2.5 0 0 1 2.5 2.5v7.627a8.75 8.75 0 0 1-12.375 12.371H20zm13.75-12.304a6.057 6.057 0 1 0 0 12.114 6.057 6.057 0 0 0 0-12.114z" id="Shape" fill="#FFF" fill-rule="nonzero"/></g><g id="Group-37" transform="matrix(-1 0 0 1 405 240)"><path d="M37.314 65.743c.112.467.223.912.334 1.379 1.802 6.607 6.296 12.97 15.24 14.483 1.4.245 2.914.356 4.56.334 6.118-.09 11.546-1.024 15.951-2.603 7.43-2.692 11.97-7.142 12.036-12.303.067-5.228-2.425-10.412-3.827-14.127-.2-.49-.378-.957-.511-1.402-1.49-4.716-1.913-9.766-.957-14.616.067-.311.111-.623.156-.934.556-3.805-.267-6.541 1.49-7.498 1.269-.667 2.403-2.758 3.115-5.428v-.022c1.046-3.849 1.224-8.9-.245-12.681C82.165 3.94 77.115-.955 63.433.158c-3.226.267-6.34 1.357-9.055 3.07a21.103 21.103 0 0 0-3.76 2.981 17.278 17.278 0 0 0-1.58 1.802c-.244.29-.489.623-.711.935-2.247 3.225-3.538 7.119-3.337 11.234.467 9.1 3.27 10.835 2.803 17.198-.467 6.34-12.258 20.222-10.479 28.365" id="Fill-1" fill="#7B1FA2"/><path d="M83.155 16.864c4.162 8.185.9 18.194-7.282 22.356-8.185 4.163-18.194.901-22.356-7.283-4.163-8.185-.903-18.194 7.281-22.354 8.185-4.165 18.194-.904 22.357 7.281" id="Fill-3" fill="#FFB74D"/><path d="M52.708 35.361s9.557-4.369 12.728-11.148c3.168-6.78.77-18.794-1.433-21.223-.759-.835-14.585 5.374-15.104 6.832-2.462 6.899-1.717 17.215 3.809 25.54" id="Fill-5" fill="#7B1FA2"/><path d="M83.642 14.063s-17.53 4.558-22.467-2.292c-4.937-6.847 3.717-8.556 10.265-7.424 6.547 1.135 9.263 3.304 12.202 9.716" id="Fill-7" fill="#7B1FA2"/><path d="M61.247 32.922c-.19 2.247-3.581 3.793-5.83 3.6a4.086 4.086 0 0 1 .7-8.14c2.247.193 5.324 2.293 5.13 4.54" id="Fill-9" fill="#FFB74D"/><path d="M85.275 190.96c-1.47.652-2.823.828-4.154.912-1.321.045-2.6-.086-3.842-.367a13.143 13.143 0 0 1-3.601-1.357c-1.15-.656-2.267-1.455-3.264-2.75a2.454 2.454 0 0 1 .903-3.713c1.48-.691 2.837-.887 4.163-.94 1.319-.045 2.59.122 3.82.449 1.234.322 2.429.792 3.583 1.44 1.142.687 2.265 1.46 3.27 2.716a2.344 2.344 0 0 1-.878 3.61" id="Fill-11" fill="#E57373"/><path d="M81.975 130.571l-.185-1.339c-.47-3.361-.92-6.727-1.52-10.058-.513-3.35-1.325-6.63-1.975-9.947-1.435-6.602-2.999-13.172-4.574-19.742a7.882 7.882 0 0 0-5.39-5.7 7.868 7.868 0 0 0-9.796 5.275l-1.321 4.416c-.563 1.874-.654 3.633-.579 5.35.05 1.727.372 3.387.752 5.033.786 3.284 2.218 6.412 3.66 9.54.747 1.555 1.488 3.114 2.122 4.698a74.346 74.346 0 0 1 1.89 4.755c1.136 2.947 2.13 5.929 2.927 8.959-.065 4.11-1.19 8.229-.768 12.34l1.302 13.237c.362 4.412 1.07 8.823 1.626 13.235.27 2.207.614 4.412.999 6.619.363 2.204.716 4.409 1.172 6.614l.074.353a2.9 2.9 0 0 0 5.73-.378l3.863-52.986a1.261 1.261 0 0 0-.01-.274" id="Fill-13" fill="#263238"/><path d="M39.559 194.339c-.352-1.68-.236-3.101.006-4.45.274-1.332.73-2.563 1.34-3.708a11.9 11.9 0 0 1 2.367-3.14c.994-.93 2.151-1.772 3.815-2.33a2.067 2.067 0 0 1 2.674 1.485c.403 1.709.3 3.135.034 4.472a11.867 11.867 0 0 1-1.415 3.666 13.745 13.745 0 0 1-2.445 3.097c-1.015.919-2.163 1.767-3.776 2.354a1.967 1.967 0 0 1-2.6-1.446" id="Fill-15" fill="#E57373"/><path d="M63.847 84.474a8.108 8.108 0 0 0-11.117 2.81l-1.869 3.134c-2.164 3.624-2.54 7.382-2.698 11.157-.174 3.773-.04 7.569.16 11.37.233 3.805.302 7.596.474 11.396.147 3.724.32 7.452.187 11.157-.643 3.788-2.387 7.379-2.572 11.252l-.968 12.078c-.383 4.016-.465 8.085-.698 12.127a131.567 131.567 0 0 0-.203 6.09c-.044 2.033-.096 4.066-.067 6.113l.005.325a2.904 2.904 0 0 0 5.706.714l12.652-46.713.094-.73c.68-3.737 1.441-7.466 2.002-11.21.578-3.744.819-7.513 1.246-11.266.41-3.755.616-7.526.934-11.288.27-3.766.57-7.53.683-11.308a8.119 8.119 0 0 0-3.951-7.208" id="Fill-17" fill="#37474F"/><path d="M128.413 28.255c-.014.754-.232 1.386-.45 2.02-.271.599-.534 1.206-1.037 1.67a1.421 1.421 0 0 1-2.01-.075 1.437 1.437 0 0 1-.341-1.315c.169-.663.572-1.185.965-1.713.452-.494.9-.992 1.553-1.366a.88.88 0 0 1 1.202.33c.08.14.118.298.118.449" id="Fill-19" fill="#FFB74D"/><path d="M125.09 28.927c.321.292.455.668.666 1.01.102.392.298.739.31 1.17a.373.373 0 0 1-.628.285c-.316-.291-.45-.67-.676-1.003-.12-.383-.314-.732-.325-1.164a.39.39 0 0 1 .654-.298" id="Fill-22" fill="#FFB74D"/><path d="M124.046 29.72l-19.513 19.81-32.721-2.842-.22 12.076 34.285-1.73.447-.023a3.279 3.279 0 0 0 2.367-1.203l18.768-23.029-3.413-3.059z" id="Fill-24" fill="#FF7043"/><path d="M2.043 37.506c.74.138 1.323.46 1.908.779.545.369 1.097.727 1.47 1.299a1.426 1.426 0 0 1-1.766 2.082c-.625-.274-1.07-.76-1.521-1.237-.412-.525-.826-1.048-1.081-1.755a.883.883 0 0 1 .99-1.168" id="Fill-26" fill="#FFB74D"/><path d="M5.388 38.392c.083.42-.033.799-.066 1.195-.152.37-.2.76-.445 1.11a.377.377 0 0 1-.677-.147c-.08-.418.038-.796.054-1.194.13-.374.182-.768.431-1.115a.392.392 0 0 1 .703.151" id="Fill-29" fill="#FFB74D"/><path d="M68.332 51.447l-7.595-4.07-.68-.368a4.837 4.837 0 0 0-5.385.567L32.167 66.473 6.256 38.989l-3.442 3.03 26.29 31.951c1.161 1.402 3.23 1.72 4.754.668l.25-.172L57.613 58.25l4.042 3.264 6.676-10.067z" id="Fill-31" fill="#FF7043"/><path d="M74.985 90.795c-1.669-4.194-1.729-9.144-1.527-13.549.07-1.099.14-2.2.26-3.295.096-1.099.239-2.193.52-3.277.526-2.173 1.552-4.309 2.537-6.449.982-2.14 1.754-4.296 1.836-6.498.102-2.203-.37-4.445-.992-6.7-1.395-4.515-9.269-6.195-9.269-6.195l-5.047-.356s-8.194 1.012-10.047 4.839c-.932 2.142-1.713 4.298-1.92 6.492-.225 2.193.238 4.436.908 6.692.678 2.255 1.392 4.516 1.612 6.74.125 1.115.114 2.219.052 3.318a68.093 68.093 0 0 1-.203 3.301c-.416 4.387-1.488 10.114-3.197 14.412 7.426 3.212 16.675 2.665 24.477.525" id="Fill-33" fill="#FF7043"/><path d="M62.746 44.802l1.737-8.218a1.924 1.924 0 1 1 3.802.267l.57 8.38a3.088 3.088 0 0 1-2.875 3.293 3.09 3.09 0 0 1-3.234-3.722" id="Fill-35" fill="#FFB74D"/><g id="Group-3" transform="matrix(-1 0 0 1 78 4)"><path d="M19.733 34.34a5.879 5.879 0 1 0 4.061-11.036 5.88 5.88 0 0 0-4.061 11.037z" id="Fill-1" fill="#BA68C8"/><path d="M1.2 37.605a2.146 2.146 0 0 1-.979-2.874 2.145 2.145 0 0 1 2.875-.98A2.147 2.147 0 1 1 1.2 37.606z" id="Fill-3" fill="#ECEFF1"/><path d="M1.765 37.694l.671-1.365c6.043 2.973 15.807-4.234 18.25-6.165a.763.763 0 1 1 .951 1.194c-2.623 2.093-12.952 9.74-19.872 6.336z" id="Fill-5" fill="#ECEFF1"/><path d="M25.196 25.926c-.022.022-.044.066-.066.088l-1.116-.766-1.073-.723c1.336-1.97 2.496-4.466 3.284-7.159 1.226-4.138 1.555-8.733.307-12.632-.526-1.642-1.137-3.42-2.298-4.734 1.336.832 2.345 1.681 3.461 2.798.57.569 1.077 1.11 1.558 1.745.263.983.453 2.424.54 3.455.504 5.45-.985 11.382-3.349 15.827a31.345 31.345 0 0 1-1.248 2.101z" id="Fill-7" fill="#BA68C8"/></g></g></g></svg>